<svg class="ai-power" xmlns="http://www.w3.org/2000/svg"
                          xmlns:xlink="http://www.w3.org/1999/xlink" version="1.1" id="Layer_5" x="0px" y="0px"
                          viewBox="0 0 200.9 199.7" style="enable-background:new 0 0 200.9 199.7;" xml:space="preserve">
                          <style type="text/css">
                            .ai-power .st0 {
                              fill: #ECBC11;
                            }

                            .ai-power .st1 {
                              fill: #F0CC4C;
                            }

                            .ai-power .st2 {
                              fill: #F9EDC2;
                            }
                          </style>
                          <g>
                            <path class="st0"
                              d="M200.3,199.7c-66.6,0-133.1,0-199.7,0c-0.4-0.8-0.2-1.7-0.2-2.6c0-64.8,0-129.7,0-194.5c0-0.9-0.2-1.8,0.2-2.6   c66.6,0,133.1,0,199.7,0c0.4,0.8,0.2,1.7,0.2,2.6c0,64.8,0,129.7,0,194.5C200.5,197.9,200.7,198.8,200.3,199.7z">
                            </path>
                            <path class="st1"
                              d="M0.6,0c0,66.6,0,133.1,0,199.7c-1-0.4-0.5-1.3-0.5-1.9c0-25.4,0-50.7,0-76.1c0-39.8,0-79.7,0-119.5   C0.2,1.5-0.4,0.5,0.6,0z">
                            </path>
                            <path class="st2"
                              d="M200.3,199.7c0-66.6,0-133.1,0-199.7c1,0.4,0.5,1.3,0.5,1.9c0,25.4,0,50.7,0,76.1c0,39.8,0,79.7,0,119.5   C200.7,198.2,201.3,199.1,200.3,199.7z">
                            </path>
                            <path
                              d="M100.2,53.3c17,0,33.9,0,50.9,0c9.8,0,16.6,6.8,16.6,16.6c0,18.1,0,36.2,0,54.2c0,9.8-7.1,16.7-16.9,16.6   c-1.5,0-2-0.4-1.8-1.9c0.1-0.5,0.1-1.1,0-1.7c-0.2-1.5,0.3-2.1,1.9-2c3.4,0.1,6.4-1,8.7-3.7c1.8-2.1,2.5-4.6,2.5-7.3   c0-18.1,0-36.2,0-54.2c0-6.8-4.4-11-11.4-11c-10.6,0-21.3,0-31.9,0c-22.9,0-45.8,0-68.6,0c-6,0-10,2.9-11.3,8   c-0.2,1-0.3,2.1-0.3,3.1c0,17.9,0,35.8,0,53.8c0,6.9,3.8,11.2,10.8,11.4c3.6,0.1,2,2.5,2.2,4c0.4,2.2-1.3,1.6-2.5,1.6   c-9.1,0-16.1-6.8-16.2-16.1c-0.2-18.4-0.2-36.8,0-55.2C33,59.8,40,53.3,49.6,53.3C66.4,53.3,83.3,53.3,100.2,53.3z">
                            </path>
                            <path
                              d="M142.4,115.6c0,10.2,0,20.5,0,30.7c0,3.2-1.3,5.6-4.2,6.9c-2.9,1.4-5.6,0.8-8.1-1.1c-2-1.6-2.6-3.8-2.6-6.2   c0-20.2,0-40.3,0-60.5c0-4,1.8-6.6,5-7.7c3-1.1,6.2-0.2,8.2,2.2c1.3,1.6,1.7,3.4,1.7,5.4C142.4,95.4,142.4,105.5,142.4,115.6z">
                            </path>
                            <path
                              d="M96.1,125c0,7,0,14.1,0,21.1c0,4.7-3,8-7.3,8c-4.4,0-7.5-3.2-7.5-7.9c0-14.2,0-28.5,0-42.7c0-4.7,3.1-7.9,7.5-7.9   c4.4,0,7.4,3.2,7.4,7.9C96.1,110.8,96.1,117.9,96.1,125z">
                            </path>
                            <path
                              d="M119.2,130.6c0,5.2,0,10.4,0,15.6c0,4.6-2.9,7.8-7.2,7.9c-4.2,0.1-7.5-2.9-7.7-7.5c-0.2-3.2,0-6.4,0-9.6   c0-7.4-0.1-14.7,0-22.1c0.1-5.6,4.6-9.2,9.5-7.8c3.2,0.9,5.3,3.6,5.3,7.1C119.3,119.7,119.2,125.2,119.2,130.6z">
                            </path>
                            <path
                              d="M58.1,138c0-2.8-0.1-5.6,0-8.4c0.1-4.2,3.3-7.3,7.3-7.3c4.1,0,7.4,3,7.5,7.2c0.1,5.8,0.1,11.7,0,17.5   c-0.1,4.2-3.4,7.2-7.5,7.2c-4.1,0-7.2-3.1-7.3-7.3C58.1,143.9,58.1,140.9,58.1,138z">
                            </path>
                          </g>
                        </svg>