<svg class="ai-qlik" xmlns="http://www.w3.org/2000/svg"
xmlns:xlink="http://www.w3.org/1999/xlink" version="1.1" id="Laag_1" x="0px" y="0px"
viewBox="0 0 2316.3 733.3" style="enable-background:new 0 0 2316.3 733.3;"
xml:space="preserve">
<style type="text/css">
  .ai-qlik .st0 {
    fill: #5F6062;
  }

  .ai-qlik .st1 {
    fill: #6EB33F;
  }
</style>
<g>
  <path class="st0"
    d="M1190.7,456.3c-11.6,11.6-25.5,23.2-37.1,34.7c-9.3,9.3-13.9,20.8-13.9,34.7v78.8c0,16.2-6.9,23.2-20.8,23.2   h-71.8c-16.2,0-23.2-6.9-23.2-23.2V111.2c0-18.5,4.6-23.2,23.2-23.2h64.9c23.2,0,27.8,4.6,27.8,27.8v217.7c0,6.9-4.6,18.5,4.6,20.8   c6.9,2.3,11.6-6.9,16.2-13.9c30.1-30.1,60.2-62.5,88-95c11.6-13.9,25.5-18.5,44-18.5h92.7c4.6,0,11.6-2.3,13.9,4.6   c2.3,6.9-2.3,9.3-6.9,13.9c-32.4,34.7-64.9,67.2-97.3,101.9c-20.8,20.8-20.8,25.5-6.9,51c41.7,67.2,81.1,136.7,122.8,203.8   c4.6,6.9,11.6,11.6,6.9,20.8s-13.9,4.6-20.8,4.6h-81.1c-18.5,0-30.1-6.9-39.4-23.2l-83.4-139C1195.3,463.3,1193,458.6,1190.7,456.3   L1190.7,456.3z M743.6,359v238.6c0,25.5-4.6,30.1-30.1,30.1h-64.9c-20.8,0-25.5-4.6-25.5-25.5V113.5c0-20.8,4.6-25.5,25.5-25.5   h67.2c20.8,0,25.5,4.6,25.5,27.8C743.6,194.6,743.6,275.6,743.6,359z M945.1,426.2v171.4c0,25.5-4.6,30.1-27.8,30.1h-64.9   c-18.5,0-25.5-6.9-25.5-25.5V252.5c0-20.8,4.6-25.5,25.5-25.5h67.2c18.5,0,25.5,6.9,25.5,25.5V426.2z M887.2,85.7H922   c13.9,0,18.5,6.9,18.5,18.5v51c0,13.9-6.9,18.5-18.5,18.5h-76.4c-13.9,0-18.5-6.9-18.5-20.8v-51c0-11.6,6.9-18.5,20.8-18.5   C861.8,85.7,875.6,85.7,887.2,85.7L887.2,85.7z">
  </path>
  <path class="st1"
    d="M2302.5,618.4c-27.8-23.2-53.3-46.3-81.1-69.5c-9.3-6.9-11.6-11.6-4.6-23.2c34.7-62.5,51-127.4,46.3-199.2   C2251.5,143.6,2096.3,0,1908.7,0c-9.3,0-23.2,0-37.1,2.3c-203.8,20.8-347.4,222.4-303.4,423.9c53.3,243.2,324.3,354.4,535.1,220   c9.3-4.6,13.9-4.6,20.8,2.3l90.3,76.4c16.2,11.6,23.2,11.6,37.1-2.3c18.5-20.8,37.1-44,55.6-64.9   C2321,641.6,2318.7,632.3,2302.5,618.4L2302.5,618.4z M1911,569.8c-120.4,0-215.4-97.3-215.4-217.7c0-115.8,97.3-213.1,215.4-213.1   s215.4,97.3,215.4,215.4C2128.7,470.2,2029.1,569.8,1911,569.8L1911,569.8z">
  </path>
  <path class="st0"
    d="M556,560.5c-16.2-13.9-30.1-27.8-46.3-39.4c-9.3-6.9-11.6-13.9-4.6-25.5c25.5-41.7,37.1-88,37.1-136.7   c0-13.9,0-27.8-4.6-44c-23.3-148.1-169.2-250-317.5-222.2C69.6,120.4-27.7,268.7,7,416.9c41.7,178.4,238.6,266.4,400.7,173.7   c9.3-4.6,13.9-4.6,20.8,2.3c18.5,16.2,37.1,32.4,57.9,51c11.6,9.3,20.8,9.3,30.1-2.3c13.9-16.2,27.8-32.4,44-48.6   C567.6,579.1,567.6,569.8,556,560.5L556,560.5z M271.1,511.9c-85.7,0-155.2-69.5-155.2-150.6c0-88,67.2-157.5,155.2-159.8   c85.7,0,155.2,71.8,155.2,155.2C426.3,442.4,356.8,511.9,271.1,511.9z M1911,215.4c76.4,0,139,62.5,139,139s-62.5,139-139,139   c-76.4,0-139-62.5-139-139C1772,275.6,1834.6,215.4,1911,215.4z">
  </path>
</g>
</svg>