<?xml version="1.0" encoding="utf-8"?>
<!-- Generator: Adobe Illustrator 21.1.0, SVG Export Plug-In . SVG Version: 6.00 Build 0)  -->
<svg version="1.1" id="Layer_1" xmlns="http://www.w3.org/2000/svg" xmlns:xlink="http://www.w3.org/1999/xlink" x="0px" y="0px"
	 viewBox="0 0 2500 676.8" style="enable-background:new 0 0 2500 676.8;" xml:space="preserve">
<style type="text/css">
	.st0{clip-path:url(#SVGID_2_);fill-rule:evenodd;clip-rule:evenodd;fill:#FFFFFF;}
</style>
<g>
	<defs>
		<rect id="SVGID_1_" width="2500" height="676.8"/>
	</defs>
	<clipPath id="SVGID_2_">
		<use xlink:href="#SVGID_1_"  style="overflow:visible;"/>
	</clipPath>
	<path class="st0" d="M735.4,502V194.3h39.6l188,247.6V194.3h37.6V502h-39.6l-188-250v250H735.4z M1306.6,489.7
		c-24.9,9.3-51.8,14.2-80.1,14.2c-111.3,0-167-53.2-167-160.2c0-101.1,53.7-151.9,161.1-151.9c30.8,0,59.6,4.4,85.9,12.7v34.2
		c-26.4-10.3-53.7-15.1-81.5-15.1c-84,0-126,40-126,119.1c0,85.4,41.5,127.9,124,127.9c13.2,0,27.8-2,43.9-5.4v-103h39.6V489.7z
		 M1370.1,383.3v-189h39.6v189c0,59.1,29.3,88.9,88.4,88.9c58.6,0,88.4-29.8,88.4-88.9v-189h39.6v189c0,80.6-42.5,121.1-127.9,121.1
		C1412.6,504.4,1370.1,463.9,1370.1,383.3 M1736.3,194.3v275.4h161.1V502h-200.7V194.3H1736.3z M1954.6,502h-41.5l152.8-348.1
		L2218.8,502h-43.9l-39.6-96.7h-101.6l10.7-32.2h77.6l-57.6-139.2L1954.6,502z M2261.2,502V194.3h131.3c58.6,0,87.9,24.4,87.9,73.7
		c0,40-28.8,69.8-85.9,88.9L2500,502h-52.2l-97.7-138.2v-25.9c58.6-9.3,88.4-31.7,88.4-67.9c0-28.3-16.1-42.5-48.8-42.5h-87.9V502
		H2261.2z"/>
	<path class="st0" d="M314.9,0L0,112.3l48.3,416.5l266.6,147.9l271-149.9l52.2-416.5L314.9,0z M450.2,515.1l-43-99.6H231.9
		l-39.6,98.6l-73.2,1.5L315.4,79.1L520,516.6L450.2,515.1z"/>
	<polygon class="st0" points="382.3,357.9 315.9,219.2 257.8,357.9 	"/>
</g>
</svg>
