<?xml version="1.0" encoding="utf-8"?>
<!-- Generator: Adobe Illustrator 21.1.0, SVG Export Plug-In . SVG Version: 6.00 Build 0)  -->
<svg version="1.1" id="Layer_1" xmlns="http://www.w3.org/2000/svg" xmlns:xlink="http://www.w3.org/1999/xlink" x="0px" y="0px"
	 viewBox="0 0 289 72.9" style="enable-background:new 0 0 289 72.9;"
 xml:space="preserve">
<style type="text/css">
	.st0{fill:#FFFFFF;}
</style>
<g>
	<path class="st0" d="M180.5,27.2h-8.6l0,16.1c0,4.7-2,8.5-6.7,8.5s-6.7-3.8-6.7-8.5v-16h-8.6v16c0,9.3,6,16.8,15.2,16.8
		s15.3-7.5,15.3-16.8V27.2z M257.8,17.4h8.5v41.8h-8.5V17.4z M272.7,19v-1.5h6.7V19h-2.4v6.6h-1.8V19H272.7z M282.8,17.5l1.9,5.6h0
		l1.8-5.6h2.5v8.1h-1.7v-5.8h0l-2,5.8h-1.4l-2-5.7h0v5.7h-1.7v-8.1H282.8z M142.9,26.9c-7.4-1.7-12,5.6-12.2,6
		c-0.1,0.2-0.1,0.3-0.4,0.3c-0.3,0-0.3-0.3-0.3-0.3l-0.9-5.6h-7.7v31.9h8.6V41.9c0-1.4,3.8-8.2,11.2-6.4c3.7,0.9,5.3,2.5,5.3,2.5
		v-9.7C145.4,27.6,144.2,27.2,142.9,26.9L142.9,26.9z M192.1,69.7V53.9c0,0,0-0.3,0.3-0.3c0.3,0,0.3,0.2,0.4,0.3
		c0.7,1.6,4.2,7.8,12.2,5.8c9-2.5,14.2-11.9,11.7-20.9c-2.5-9-11.9-14.2-20.9-11.7c-7.3,2.1-12.3,8.7-12.3,16.2v26.2L192.1,69.7z
		 M200.4,35c4.7,0,8.6,3.8,8.6,8.6s-3.8,8.6-8.6,8.6c-4.7,0-8.6-3.8-8.6-8.6c0,0,0,0,0,0C191.8,38.8,195.7,35,200.4,35z"/>
	<path class="st0" d="M245.8,59.2h8.6V43.5c0-9.3-7.6-16.9-16.9-16.9s-16.9,7.6-16.9,16.9c0,7.6,5,14.2,12.3,16.2
		c7.9,1.9,11.5-4.2,12.2-5.8c0.1-0.2,0.1-0.3,0.4-0.3c0.3,0,0.3,0.3,0.3,0.3 M246,43.5c0,4.7-3.8,8.6-8.6,8.6s-8.6-3.8-8.6-8.6
		c0-4.7,3.8-8.6,8.6-8.6l0,0C242.2,35,246,38.8,246,43.5z M94.6,59.2h-9.8V17.4h10.5c12.7,0,22.3,2.3,22.3,20.9
		C117.6,56.6,107.4,59.2,94.6,59.2L94.6,59.2z M96.9,24.7h-3.4v27.3L97,52c7.3,0,11.9-0.7,11.9-13.7
		C108.9,25.8,104.8,24.7,96.9,24.7L96.9,24.7z"/>
	<path class="st0" d="M43.7,12c0,0-4.3-1.8-6.6-3.4c0,0-3-1.8-8.2-8.6c0,0,0.1,7.7-8,11.6l0,0C8,17,0,27.6,0,41.3
		c0,17.4,14.1,31.6,31.6,31.6c17.4,0,31.6-14.1,31.6-31.6C63.2,20.3,43.7,12,43.7,12z M46.4,66.9c0,0-10.2,5.2-18-0.1
		c-1.1-0.8-0.8-3.2,2.2-1.5c0,0,6.4,4.7,16.5-0.9C47.9,63.9,48.9,65.5,46.4,66.9z M34.9,60.2c0,0,3-3.9,7.1-3.3c0,0,2.6-0.2,4.1,2.8
		c0,0,0.9,2.2-1.2,1.7c-1-0.3,0.3-2.1-3.4-2.5c-2.7-0.3-3.9,1.9-5.9,2.9C35.2,62,34.1,61.9,34.9,60.2z M54.8,60.3
		c0,0-1.6,0.5-3.3-1.3c0,0-4.9-5.6-7.4-6.5c0,0-1.4-0.5-3.3,0.1c0,0-1.2,0.1-6.2,3.4c0,0-8.4,5.2-12.6,4.6h0c0,0-9.4,0.3-8.3-9.8
		c0,0,2-11.3,15.2-8.8c0,0,2.9,0.6,8.3,4.8c0,0,3.6,2.7,5.5,2.7c0,0,1.5,0.1,4.7-1.9c0,0,6.4-5,8.7-4.8c0.1,0,4.5-0.5,4.5,6.7
		C60.7,49.6,60.8,57.6,54.8,60.3z"/>
</g>
</svg>
