<?xml version="1.0" encoding="utf-8"?>
<!-- Generator: Adobe Illustrator 21.1.0, SVG Export Plug-In . SVG Version: 6.00 Build 0)  -->
<svg version="1.1" id="Layer_1" xmlns="http://www.w3.org/2000/svg" xmlns:xlink="http://www.w3.org/1999/xlink" x="0px" y="0px"
	 viewBox="0 0 111.1 40.3" style="enable-background:new 0 0 111.1 40.3;" xml:space="preserve">
<style type="text/css">
	.st0{clip-path:url(#SVGID_2_);fill:#39CEFD;}
	.st1{clip-path:url(#SVGID_2_);fill:#03569B;}
	.st2{clip-path:url(#SVGID_2_);}
	.st3{filter:url(#Adobe_OpacityMaskFilter);}
	.st4{clip-path:url(#SVGID_4_);fill:url(#SVGID_6_);}
	.st5{clip-path:url(#SVGID_4_);mask:url(#SVGID_5_);fill:url(#SVGID_7_);}
	.st6{clip-path:url(#SVGID_2_);fill:#16B9FD;}
	.st7{filter:url(#Adobe_OpacityMaskFilter_1_);}
	.st8{clip-path:url(#SVGID_9_);fill:url(#SVGID_11_);}
	.st9{clip-path:url(#SVGID_9_);mask:url(#SVGID_10_);fill:url(#SVGID_12_);}
	.st10{clip-path:url(#SVGID_14_);fill:#FFFFFF;}
</style>
<g>
	<defs>
		<rect id="SVGID_1_" width="111.1" height="40.3"/>
	</defs>
	<clipPath id="SVGID_2_">
		<use xlink:href="#SVGID_1_"  style="overflow:visible;"/>
	</clipPath>
	<polygon class="st0" points="20.2,18.6 9.3,29.5 14.9,35 15.5,35.7 32.6,18.6 	"/>
	<polygon class="st0" points="20.2,0 0,20.2 6.2,26.4 32.6,0 	"/>
	<polygon class="st1" points="15.5,35.7 16.1,36.2 20.2,40.3 32.6,40.3 21.7,29.5 	"/>
	<g class="st2">
		<defs>
			<polygon id="SVGID_3_" points="15.5,35.7 15.5,35.7 24.7,32.5 21.7,29.5 			"/>
		</defs>
		<clipPath id="SVGID_4_">
			<use xlink:href="#SVGID_3_"  style="overflow:visible;"/>
		</clipPath>
		<defs>
			<filter id="Adobe_OpacityMaskFilter" filterUnits="userSpaceOnUse" x="12.4" y="24.9" width="15.4" height="15.4">
				<feColorMatrix  type="matrix" values="1 0 0 0 0  0 1 0 0 0  0 0 1 0 0  0 0 0 1 0"/>
			</filter>
		</defs>
		<mask maskUnits="userSpaceOnUse" x="12.4" y="24.9" width="15.4" height="15.4" id="SVGID_5_">
			<g class="st3">
				
					<linearGradient id="SVGID_6_" gradientUnits="userSpaceOnUse" x1="0" y1="40.1582" x2="1" y2="40.1582" gradientTransform="matrix(4.62 -4.62 4.62 4.62 -168.972 -149.4226)">
					<stop  offset="0" style="stop-color:#666666"/>
					<stop  offset="1" style="stop-color:#000000"/>
				</linearGradient>
				<polygon class="st4" points="20.1,40.3 27.8,32.6 20.1,24.9 12.4,32.6 				"/>
			</g>
		</mask>
		
			<linearGradient id="SVGID_7_" gradientUnits="userSpaceOnUse" x1="0" y1="40.1582" x2="1" y2="40.1582" gradientTransform="matrix(4.62 -4.62 4.62 4.62 -168.972 -149.4226)">
			<stop  offset="0" style="stop-color:#1A237E"/>
			<stop  offset="1" style="stop-color:#1A237E"/>
		</linearGradient>
		<polygon class="st5" points="20.1,40.3 27.8,32.6 20.1,24.9 12.4,32.6 		"/>
	</g>
	<polygon class="st6" points="9.3,29.5 15.5,35.7 21.7,29.5 21.7,29.5 21.7,29.5 15.5,23.3 	"/>
	<g class="st2">
		<defs>
			<path id="SVGID_8_" d="M20.2,18.6L9.3,29.5l10.9,10.9h12.4L21.7,29.5l10.9-10.9H20.2z M20.2,0L0,20.2l6.2,6.2L32.6,0H20.2z"/>
		</defs>
		<clipPath id="SVGID_9_">
			<use xlink:href="#SVGID_8_"  style="overflow:visible;"/>
		</clipPath>
		<defs>
			<filter id="Adobe_OpacityMaskFilter_1_" filterUnits="userSpaceOnUse" x="0" y="0" width="32.6" height="40.3">
				<feColorMatrix  type="matrix" values="1 0 0 0 0  0 1 0 0 0  0 0 1 0 0  0 0 0 1 0"/>
			</filter>
		</defs>
		<mask maskUnits="userSpaceOnUse" x="0" y="0" width="32.6" height="40.3" id="SVGID_10_">
			<g class="st7">
				
					<radialGradient id="SVGID_11_" cx="0" cy="40.3213" r="1" gradientTransform="matrix(49.3282 0 0 -49.3282 -235.7658 1873.8792)" gradientUnits="userSpaceOnUse">
					<stop  offset="0" style="stop-color:#1A1A1A"/>
					<stop  offset="1" style="stop-color:#000000"/>
				</radialGradient>
				<rect y="0" class="st8" width="32.6" height="40.3"/>
			</g>
		</mask>
		
			<radialGradient id="SVGID_12_" cx="0" cy="40.3213" r="1" gradientTransform="matrix(49.3282 0 0 -49.3282 -235.7658 1873.8792)" gradientUnits="userSpaceOnUse">
			<stop  offset="0" style="stop-color:#FFFFFF"/>
			<stop  offset="1" style="stop-color:#FFFFFF"/>
		</radialGradient>
		<rect y="0" class="st9" width="32.6" height="40.3"/>
	</g>
	<g class="st2">
		<defs>
			<rect id="SVGID_13_" y="0" width="111.1" height="40.3"/>
		</defs>
		<clipPath id="SVGID_14_">
			<use xlink:href="#SVGID_13_"  style="overflow:visible;"/>
		</clipPath>
		<path class="st10" d="M36.5,10.8h10.8v2.1h-8.6v6.4h7.8v2.1h-7.8v8.1h-2.2V10.8z M50,10.8h2.2v18.7H50V10.8z M60.3,30
			c-1.6,0-2.8-0.5-3.7-1.4c-0.8-0.9-1.2-2.3-1.2-4v-8.4h2.2v8.1c0,1.3,0.3,2.2,0.9,2.8c0.6,0.6,1.4,0.9,2.3,0.9c0.8,0,1.4-0.2,2-0.6
			c0.6-0.4,1.1-0.9,1.4-1.6c0.3-0.6,0.5-1.3,0.5-2v-7.5h2.2v13.4h-2.1v-1.9h-0.1c-0.4,0.7-1,1.2-1.8,1.7C62.1,29.7,61.2,30,60.3,30
			L60.3,30z"/>
		<path class="st10" d="M75.4,29.8c-0.5,0-1-0.1-1.5-0.3c-0.5-0.2-0.8-0.4-1.2-0.7c-0.3-0.3-0.6-0.7-0.8-1.2c-0.2-0.4-0.3-1-0.3-1.6
			v-7.8h-2.3v-2h2.3v-3.8H74v3.8h3.2v2H74v7.3c0,0.7,0.1,1.3,0.4,1.6c0.3,0.4,0.8,0.6,1.4,0.6c0.5,0,1-0.1,1.5-0.4v2.2
			c-0.3,0.1-0.5,0.2-0.8,0.3C76.2,29.7,75.9,29.8,75.4,29.8L75.4,29.8z"/>
		<path class="st10" d="M84.9,29.8c-0.5,0-1-0.1-1.5-0.3c-0.5-0.2-0.8-0.4-1.2-0.7c-0.3-0.3-0.6-0.7-0.8-1.2c-0.2-0.4-0.3-1-0.3-1.6
			v-7.8h-2.3v-2h2.3v-3.8h2.2v3.8h3.2v2h-3.2v7.3c0,0.7,0.1,1.3,0.4,1.6c0.3,0.4,0.8,0.6,1.4,0.6c0.5,0,1-0.1,1.5-0.4v2.2
			c-0.3,0.1-0.5,0.2-0.8,0.3C85.6,29.7,85.3,29.8,84.9,29.8L84.9,29.8z"/>
		<path class="st10" d="M94.7,30c-1.3,0-2.4-0.3-3.4-0.9c-1-0.6-1.8-1.4-2.4-2.5c-0.6-1.1-0.8-2.3-0.8-3.6c0-1.3,0.3-2.5,0.8-3.6
			c0.5-1.1,1.3-1.9,2.3-2.6c1-0.6,2.1-1,3.4-1c1.3,0,2.4,0.3,3.4,0.9c1,0.6,1.7,1.4,2.2,2.4c0.5,1,0.8,2.2,0.8,3.5
			c0,0.3,0,0.5-0.1,0.7H90.3c0.1,1,0.3,1.9,0.7,2.6c0.4,0.7,1,1.2,1.7,1.6c0.7,0.3,1.4,0.5,2.1,0.5c1.7,0,3-0.8,4-2.4l1.9,0.9
			c-0.6,1.1-1.4,1.9-2.4,2.6C97.3,29.7,96.1,30,94.7,30L94.7,30z M98.5,21.5c0-0.6-0.2-1.1-0.5-1.7c-0.3-0.6-0.7-1-1.3-1.4
			c-0.6-0.4-1.3-0.6-2.3-0.6c-1,0-1.9,0.3-2.7,1c-0.7,0.7-1.2,1.5-1.4,2.6L98.5,21.5L98.5,21.5z M103.5,16.2h2.1v2.1h0.1
			c0.3-0.7,0.8-1.3,1.5-1.8c0.8-0.5,1.5-0.7,2.4-0.7c0.6,0,1.1,0.1,1.6,0.3v2.4c-0.6-0.3-1.2-0.4-1.9-0.4c-0.6,0-1.2,0.2-1.8,0.5
			c-0.5,0.4-1,0.9-1.3,1.5c-0.3,0.6-0.5,1.3-0.5,2v7.5h-2.2L103.5,16.2L103.5,16.2z"/>
	</g>
</g>
</svg>
