<?xml version="1.0" encoding="utf-8"?>
<!-- Generator: Adobe Illustrator 21.1.0, SVG Export Plug-In . SVG Version: 6.00 Build 0)  -->
<svg version="1.1" id="Layer_1" xmlns="http://www.w3.org/2000/svg" xmlns:xlink="http://www.w3.org/1999/xlink" x="0px" y="0px"
	 viewBox="0 0 60 60" style="enable-background:new 0 0 60 60;" xml:space="preserve">
<style type="text/css">
	.st0{fill:#8AC4E5;}
	.st1{fill:#9E715E;}
	.st2{fill:#DFDDDB;}
	.st3{fill:#020202;}
	.st4{fill:#DEDDDB;}
	.st5{fill:#3F8BBF;}
	.st6{fill:#3E8ABF;}
	.st7{fill:#111110;}
	.st8{fill:#111010;}
	.st9{fill:#F0F0EF;}
	.st10{fill:#EDEDEC;}
</style>
<g>
	<g>
		<path class="st0" d="M53,9c0,0.5,0,0.9,0,1.4c-0.2,1.1-1,1.8-2,2.3s-1.3,1.2-1.2,2.4c0.3,3,0.1,6-0.2,9c-0.3,2.9-0.1,5.7,0.2,8.6
			c0.1,1.1,0.2,2.2,0.1,3.4c-0.2,0.7-0.9,1-1.1,1.7c-0.3,1.3,0,2.1,1.2,2.9c0.3,3.6-0.4,7.1-1.8,10.5c-0.9,2.1-2.3,3.9-4.2,5.3
			c-1.6,0.2-2.9,1.2-4.2,2c-1.6,0.6-3.2,0.7-4.9,0.8c-4.9,0.1-9.7,0.4-14.5-0.7c-1.4-0.4-2.5-1.6-4-1.8c-3.1-2.4-5-5.5-5.7-9.3
			c-0.5-2.2-0.8-4.4-0.5-6.6c2-1.2,1.7-2.8,0.1-4.6c-0.2-1.9,0.1-3.9,0.3-5.8c0.3-2.5,0.2-5-0.1-7.5c-0.3-2.6-0.2-5.2-0.1-7.8
			c0-1.1-0.3-1.8-1.2-2.4C7.6,12,6.9,10.7,7.3,8.9C7.4,7.2,8.5,6.3,10,6.3c0.1,0,0.2,0,0.3,0c2.1,0.8,3.5-0.2,5.1-1.6
			c3.5-2.9,7.6-4.4,12.2-4.2c1.4,0,2.9,0,4.3,0c5.4-0.1,10,1.7,13.9,5.4c0.6,0.6,1.3,0.9,2.2,0.7c0.3-0.1,0.6-0.1,0.9-0.1
			C51.4,6.1,52.5,6.8,53,9z"/>
		<path class="st1" d="M20.2,58.1c0.1,1.2-1.1,0.9-1.6,1.4c-0.6,0-1.2,0-1.9,0c0,0,0-0.1-0.1-0.1c-0.5-0.4-1.5-0.2-1.5-1.1
			c0-0.9,0.7-1.4,1.4-1.8C18,56.4,18.9,57.5,20.2,58.1z"/>
		<path class="st2" d="M39.1,23.9c-3.7-0.1-6.9-3-7-7.4c-0.1-3.5,2.7-6.2,6.3-6.1c3.3,0.1,6.6,3.1,6.7,7.4
			C45.1,21.1,42.3,23.9,39.1,23.9z"/>
		<path class="st2" d="M27.9,16.7c0,4.2-3,7.3-7,7.2c-3.1,0-5.8-2.8-5.9-6c0-3.8,3.3-7.6,6.7-7.5C24.9,10.5,28.3,12.7,27.9,16.7z"/>
		<path class="st1" d="M32.1,23c0.9,0.2,1.6,0.8,2.2,1.5c0.9,1,0.6,2.1-0.5,2.7c-0.5,0.2-1.1,0.4-1.7,0.5c-1.5,0-3,0-4.4-0.1
			c-0.3-0.1-0.6-0.2-0.9-0.3c-1.7-0.8-1.9-2.4-0.4-3.5c0.5-0.3,1-0.6,1.6-0.7c0.5,1.6,1,1.9,2.3,1.8C31.5,24.8,31.8,24.4,32.1,23z"
			/>
		<path class="st3" d="M32.1,23c0.7,1.5,0.5,1.9-1.6,2.3c-1.9,0.3-3-0.6-2.6-2.2C29.2,22,30.5,22,32.1,23z"/>
		<path class="st4" d="M27.6,27.5c1.5-0.5,3-0.6,4.4,0.1c0.4,1.5-0.2,2.3-1.7,2.3c-0.6,0-1.2-0.1-1.8-0.2
			C27.2,29.4,27.8,28.3,27.6,27.5z"/>
		<path class="st1" d="M43.8,56.3c0.6,0.5,1.5,1,1.2,1.9s-1.3,0.9-2.1,1c-1.1,0.1-2.3,0.1-3-1.1C41,57.2,42.1,56.1,43.8,56.3z"/>
		<path class="st1" d="M49.7,36.2c1.6,1.2,1.7,3.4,0.2,4.5c-0.8,0-1.4-0.3-1.6-1.2C48.1,37.9,48.5,36.8,49.7,36.2z"/>
		<path class="st1" d="M10.2,40.7c-1.5-1.1-1.4-3.3,0.2-4.5c1.2,0.6,1.8,2.6,1.2,3.7C11.3,40.5,10.8,40.7,10.2,40.7z"/>
		<path class="st5" d="M50.4,9.5c-0.1,0.6-0.5,1.3-1,1.2c-0.7-0.2-0.9-1-1-1.7c-0.1-0.5,0.3-0.7,0.7-0.6C49.8,8.4,50.4,8.7,50.4,9.5
			z"/>
		<path class="st6" d="M10.9,8.3c0.4,0.1,0.9,0.3,0.8,0.7c-0.2,0.6-0.2,1.6-1,1.7c-0.5,0.1-1-0.5-1-1.2C9.7,8.7,10.3,8.5,10.9,8.3z"
			/>
		<path class="st7" d="M35.9,17.3c0-1.5,1-2.6,2.5-2.6s2.7,1.1,2.7,2.6S40,19.9,38.5,20C37,20,35.9,18.9,35.9,17.3z"/>
		<path class="st8" d="M21.6,20c-1.5,0-2.7-1.1-2.7-2.6c0-1.4,1.1-2.6,2.5-2.6c1.6,0,2.7,1,2.7,2.5C24.2,18.8,23.2,20,21.6,20z"/>
		<path class="st9" d="M37.7,15.4c0.7,0,1,0.3,1,0.9c0,0.5-0.3,0.8-0.8,0.8S37,16.8,37,16.3C37,15.7,37.3,15.5,37.7,15.4z"/>
		<path class="st10" d="M23.2,16.2c0,0.5-0.3,0.9-0.8,0.9s-0.8-0.3-0.9-0.9c0-0.5,0.2-0.8,0.7-0.8C22.8,15.4,23.1,15.7,23.2,16.2z"
			/>
	</g>
</g>
</svg>
