<?xml version="1.0" encoding="utf-8"?>
<!-- Generator: Adobe Illustrator 22.1.0, SVG Export Plug-In . SVG Version: 6.00 Build 0)  -->
<svg version="1.1" id="Layer_1" xmlns="http://www.w3.org/2000/svg" xmlns:xlink="http://www.w3.org/1999/xlink" x="0px" y="0px"
	 viewBox="0 0 425.4 504.1" style="enable-background:new 0 0 425.4 504.1;" xml:space="preserve">
<style type="text/css">
	.st0{clip-path:url(#SVGID_2_);fill:#949494;}
	.st1{clip-path:url(#SVGID_2_);fill:#3AAAD8;}
	.st2{clip-path:url(#SVGID_2_);fill:#52D76C;}
</style>
<g>
	<defs>
		<rect id="SVGID_1_" width="425.4" height="504.1"/>
	</defs>
	<clipPath id="SVGID_2_">
		<use xlink:href="#SVGID_1_"  style="overflow:visible;"/>
	</clipPath>
	<path class="st0" d="M356.9,389.4c-3.2-5.5-10.6-7.5-16.1-4.3c-101.2,58.3-230.8,24-289.1-76C-6.2,209.1,28.8,80.3,130,22
		c5.5-3.2,7.5-10.6,4.3-16.1c-3.2-5.5-10.6-7.5-16.1-4.3c-112.6,65-151.6,208.3-87,319.4c40.2,69.3,110.7,109.9,185.5,115.4v32.3
		h-45.3c-9.8,0-17.7,7.9-17.7,17.7c0,9.8,7.9,17.7,17.7,17.7h114.2c9.8,0,17.7-7.9,17.7-17.7c0-9.8-7.9-17.7-17.7-17.7h-48.4h3.2
		v-31.5c38.2-0.8,76.8-11,112.2-31.5C358.1,402,360,395,356.9,389.4"/>
	<path class="st1" d="M236.4,15.7c104.4,0,189,84.7,189,189s-84.7,189-189,189c-104.4,0-189-84.7-189-189S132,15.7,236.4,15.7"/>
	<path class="st2" d="M377.4,330.8c13-50.4,24.8-123.3-12.6-115c-35.8,7.9-80.3,16.5-101.6,19.7c-21.3,3.1-46.9-18.1-75.6-33.5
		c-3.9-16.1-4.3-24.8,18.1-41.4c22.8-16.9,33.5,16.1,42.5,6.3c15-18.1,4.7-35.1,24-74.4c19.3-38.6,21.3-32.7,35.1-63
		c-21.7-8.7-45.7-13.8-70.9-13.8c-73.3,0-136.7,41.7-168.2,102.4c5.1,10.6,12.2,21.7,22.1,33.9c30.3,36.6,62.2,51.6,112.2,82.3
		c50,30.3,42.5,44.1,30.3,57.9c-12.2,13.8-31.1,72.9,4.7,91.4l16.1,9.8C302.5,388.7,346.3,365.4,377.4,330.8"/>
</g>
</svg>
