<?xml version="1.0" encoding="utf-8"?>
<!-- Generator: Adobe Illustrator 22.1.0, SVG Export Plug-In . SVG Version: 6.00 Build 0)  -->
<svg version="1.1" id="Layer_1" xmlns="http://www.w3.org/2000/svg" xmlns:xlink="http://www.w3.org/1999/xlink" x="0px" y="0px"
	 viewBox="0 0 512 512" style="enable-background:new 0 0 512 512;" xml:space="preserve">
<style type="text/css">
	.st0{fill:#979797;}
	.st1{fill:#FF6379;}
	.st2{fill:#DCDCDB;}
</style>
<path class="st0" d="M245.5,512c-47.1,0-85.5-38.4-85.5-85.5V295c0-8.3,6.7-15,15-15s15,6.7,15,15v131.5c0,30.6,24.9,55.5,55.5,55.5
	s55.5-24.9,55.5-55.5v-91c0-47.1,38.4-85.5,85.5-85.5s85.5,38.4,85.5,85.5V365c0,8.3-6.7,15-15,15s-15-6.7-15-15v-29.5
	c0-30.6-24.9-55.5-55.5-55.5S331,304.9,331,335.5v91C331,473.6,292.6,512,245.5,512z"/>
<path class="st0" d="M175,310c-80,0-145-65-145-145V75c0-8.3,6.7-15,15-15s15,6.7,15,15v90c0,63.4,51.6,115,115,115
	s115-51.6,115-115V75c0-8.3,6.7-15,15-15s15,6.7,15,15v90C320,245,255,310,175,310z"/>
<path class="st1" d="M205,135h-15v-15c0-8.3-6.7-15-15-15s-15,6.7-15,15v15h-15c-8.3,0-15,6.7-15,15s6.7,15,15,15h15v15
	c0,8.3,6.7,15,15,15s15-6.7,15-15v-15h15c8.3,0,15-6.7,15-15S213.3,135,205,135z"/>
<path class="st2" d="M457,460c-30.3,0-55-24.7-55-55s24.7-55,55-55s55,24.7,55,55S487.3,460,457,460z"/>
<path class="st2" d="M305,90c-24.8,0-45-20.2-45-45s20.2-45,45-45s45,20.2,45,45S329.8,90,305,90z"/>
<path class="st2" d="M45,90C20.2,90,0,69.8,0,45S20.2,0,45,0s45,20.2,45,45S69.8,90,45,90z"/>
</svg>
