<?xml version="1.0" encoding="utf-8"?>
<!-- Generator: Adobe Illustrator 22.1.0, SVG Export Plug-In . SVG Version: 6.00 Build 0)  -->
<svg version="1.1" id="Layer_1" xmlns="http://www.w3.org/2000/svg" xmlns:xlink="http://www.w3.org/1999/xlink" x="0px" y="0px"
	 viewBox="0 0 37.7 38.1" style="enable-background:new 0 0 37.7 38.1;" xml:space="preserve">
<style type="text/css">
	.st0{clip-path:url(#SVGID_2_);fill:#EB4F7E;}
	.st1{clip-path:url(#SVGID_2_);fill:#6773B1;}
</style>
<g>
	<defs>
		<rect id="SVGID_1_" y="0" width="37.7" height="38.1"/>
	</defs>
	<clipPath id="SVGID_2_">
		<use xlink:href="#SVGID_1_"  style="overflow:visible;"/>
	</clipPath>
	<path class="st0" d="M3.8,9.5c-2.5,0.4-4.2,2.8-3.7,5.4c0.4,2.5,2.8,4.2,5.4,3.7c2.5-0.4,4.2-2.8,3.7-5.4C8.7,10.8,6.3,9.1,3.8,9.5
		"/>
	<polygon class="st0" points="4.7,0 7.1,13.6 9.2,13.3 7.5,3.7 13.3,4.2 12.7,0.7 	"/>
	<path class="st1" d="M35.7,14.7L20.9,10c-1.3-0.5-2.7,0.3-3.3,1.5l-6.1,13.1c-0.5-0.4-1.2-0.7-1.9-0.9c-2.7-0.5-5.7,0.7-6.8,2.9
		c-1,2.2,0.4,4.4,3.1,4.9c2.7,0.5,5.8-0.7,6.8-2.9l5.1-10.9l14.9,4.7l-4,8.6c-0.5-0.4-1.2-0.6-2-0.8c-2.7-0.5-5.7,0.7-6.8,2.9
		c-1,2.2,0.4,4.4,3.1,4.9c2.7,0.5,5.8-0.7,6.8-2.9l7.7-16.5C38.2,17.1,37.3,15.2,35.7,14.7"/>
</g>
</svg>
