<?xml version="1.0" encoding="utf-8"?>
<!-- Generator: Adobe Illustrator 22.1.0, SVG Export Plug-In . SVG Version: 6.00 Build 0)  -->
<svg version="1.1" id="Layer_1" xmlns="http://www.w3.org/2000/svg" xmlns:xlink="http://www.w3.org/1999/xlink" x="0px" y="0px"
	 viewBox="0 0 58 47" style="enable-background:new 0 0 58 47;" xml:space="preserve">
<style type="text/css">
	.st0{clip-path:url(#SVGID_2_);fill:#556080;}
	.st1{clip-path:url(#SVGID_2_);fill:none;stroke:#2B313D;stroke-width:2;stroke-linecap:round;stroke-miterlimit:10;}
	.st2{clip-path:url(#SVGID_2_);fill:#7383BF;}
	.st3{clip-path:url(#SVGID_2_);fill:#EFCE4A;}
</style>
<g>
	<defs>
		<rect id="SVGID_1_" width="58" height="47"/>
	</defs>
	<clipPath id="SVGID_2_">
		<use xlink:href="#SVGID_1_"  style="overflow:visible;"/>
	</clipPath>
	<path class="st0" d="M45,10L41,0H17l-4,10H3.8C1.7,10,0,11.7,0,13.8v29.4C0,45.3,1.7,47,3.8,47h50.3c2.1,0,3.8-1.7,3.8-3.8V13.8
		c0-2.1-1.7-3.8-3.8-3.8H45z"/>
	<circle class="st1" cx="29" cy="26" r="17"/>
	<path class="st2" d="M29,15c6.1,0,11,4.9,11,11c0,6.1-4.9,11-11,11s-11-4.9-11-11C18,19.9,22.9,15,29,15"/>
	<rect x="6" y="5" class="st0" width="4" height="5"/>
	<path class="st3" d="M51,14c1.7,0,3,1.3,3,3c0,1.7-1.3,3-3,3c-1.7,0-3-1.3-3-3C48,15.3,49.3,14,51,14"/>
</g>
</svg>
