<?xml version="1.0" encoding="utf-8"?>
<!-- Generator: Adobe Illustrator 22.1.0, SVG Export Plug-In . SVG Version: 6.00 Build 0)  -->
<svg version="1.1" id="Layer_1" xmlns="http://www.w3.org/2000/svg" xmlns:xlink="http://www.w3.org/1999/xlink" x="0px" y="0px"
	 viewBox="0 0 512 406.1" style="enable-background:new 0 0 512 406.1;" xml:space="preserve">
<style type="text/css">
	.st0{fill:#F58220;}
	.st1{fill:#BF1D5B;}
</style>
<g>
	<path class="st0" d="M508.6,174.6l-311.1,67.8L62.5,0L16.9,25.4l153.2,275.2l309.5-65.7c22-4.7,36.1-26.3,31.4-48.4L508.6,174.6z"
		/>
	<path class="st1" d="M500.8,347.4c-3.8-7.8-13-11.4-21-8.1c-6.3,2.6-12.8,5-19.6,7.4l-21.8-86.3l18.6-4
		c8.9-1.9,14.5-10.6,12.6-19.5c-1.9-8.9-10.6-14.5-19.5-12.6l-19.8,4.2l-30.6-121.5l47.8-10.2c8.9-1.9,14.5-10.6,12.6-19.5
		c-1.9-8.9-10.6-14.5-19.5-12.6l-211.2,44.9l-57.9,159.9L30.7,17.1C26.3,9.1,16.3,6.3,8.4,10.7C0.5,15.1-2.3,25.1,2.1,33
		l154.8,277.5l-17.4,48.2c-23-5.2-44.2-11.7-62.9-19.4c-8-3.3-17.2,0.3-21,8.1c-4.1,8.5-0.2,18.7,8.6,22.3
		c56.3,23.2,133.1,36.4,214,36.4s157.7-13.1,214-36.4C501,366.1,504.9,355.9,500.8,347.4z M254.2,138.1l113.5-24.1l30.6,121.5
		L204,276.6L254.2,138.1z M172.1,365l18.8-52.1l215.4-45.8l22.4,88.7c-44.3,11.2-96.3,17.3-150.5,17.3
		C241.2,373.3,205.2,370.4,172.1,365z"/>
</g>
</svg>
