<?xml version="1.0" encoding="utf-8"?>
<!-- Generator: Adobe Illustrator 22.1.0, SVG Export Plug-In . SVG Version: 6.00 Build 0)  -->
<svg version="1.1" id="Layer_1" xmlns="http://www.w3.org/2000/svg" xmlns:xlink="http://www.w3.org/1999/xlink" x="0px" y="0px"
	 viewBox="0 0 464 464" style="enable-background:new 0 0 464 464;" xml:space="preserve">
<style type="text/css">
	.st0{clip-path:url(#SVGID_2_);fill:#FFD26D;}
	.st1{clip-path:url(#SVGID_2_);fill:#E9281E;}
	.st2{clip-path:url(#SVGID_2_);fill:#FFFFFF;}
</style>
<g>
	<defs>
		<rect id="SVGID_1_" width="464" height="464"/>
	</defs>
	<clipPath id="SVGID_2_">
		<use xlink:href="#SVGID_1_"  style="overflow:visible;"/>
	</clipPath>
	<path class="st0" d="M419.7,133c-1.3-7.2-5.7-13.5-12.2-17.1c-5.9-3.6-13.2-4.3-19.7-1.8c0-0.5,0.2-1,0.2-1.5
		c0.1-13.1-10.4-23.9-23.6-24c-2.9,0-5.8,0.5-8.6,1.5c0-0.5,0.2-1,0.2-1.5c0-13.3-10.7-24-24-24c0-13.3-10.7-24-24-24
		c-0.5,0-1,0.1-1.5,0.2c2.2-5.5,2-11.6-0.4-17c-3.4-8.3-11.1-14-20-15.1c-7.4-0.6-14.6,2.2-19.6,7.6C262,4,248.3-2.5,235.8,2
		c-9.5,3.4-15.9,12.5-15.8,22.7c0-13.2-10.7-24-23.9-24c-8.2,0-15.9,4.2-20.3,11.2c-5.2-3.1-11.4-4-17.3-2.5
		c-9.2,2.3-16.2,9.7-18,18.9c-1.4,7.4,0.9,15,6,20.5c-7.6,0.5-14.5,4.6-18.6,11c-5.9-3.5-13.1-4.2-19.5-1.9
		c-6.9,2.4-12.4,7.8-14.8,14.6c-2,5.5-1.9,11.6,0.3,17C83.3,92.4,76,101.9,76,112.7c0,0.5,0.1,1,0.2,1.5c-6.5-2.5-13.8-1.9-19.7,1.8
		c-6.4,3.6-10.9,9.8-12.2,17.1c-1.5,9.6,3,19.1,11.3,24.1l4.4,3.6h28V192h280v-31.3h36l-1.1-1.1C414.3,156.2,421.5,144.8,419.7,133"
		/>
	<path class="st1" d="M112,464L42.5,189.7c-4.6-20.1,7.9-40.1,27.9-44.7c2.8-0.6,5.6-1,8.4-1h0.4c18.8,0,34.6,13.9,37,32.5L160,464
		H112z"/>
	<path class="st2" d="M160,464l-42.6-278c-2.6-20.4,11.8-39.1,32.2-41.7c1.6-0.2,3.2-0.3,4.8-0.3h1.3c20.2,0,36.7,16.1,37.3,36.3
		L208,464H160z"/>
	<path class="st1" d="M193,182.2L208,464h48l14-280.8c1.1-20.6-14.7-38.1-35.3-39.1c-0.6,0-1.3-0.1-1.9-0.1h-2.5
		c-20.6,0-37.3,16.7-37.3,37.2C193,181.6,193,181.9,193,182.2"/>
	<path class="st2" d="M270.2,179.4L256,464h48l41.4-277.1c3.1-20.3-10.8-39.4-31.2-42.5c-1.9-0.3-3.8-0.4-5.7-0.4h-1.2
		C287.6,144,271.2,159.6,270.2,179.4"/>
	<path class="st1" d="M384,144c20.6,0,37.3,16.7,37.3,37.3c0,3.1-0.4,6.2-1.2,9.3L352,464h-48l43.1-288.4
		C349.9,157.4,365.6,144,384,144"/>
	<path class="st0" d="M72,24c0.1-13.2-10.6-24-23.8-24c-8.9,0-17,4.8-21.2,12.6c-1-0.2-2-0.3-3-0.3c-13.3,0-24,10.7-24,24
		c0,13.3,10.7,24,24,24c1.1,0,2.2-0.1,3.3-0.3c6.5,11.5,21.1,15.5,32.6,9s15.5-21.1,9-32.6c-0.1-0.2-0.2-0.3-0.3-0.5
		C70.8,32.4,72,28.2,72,24"/>
	<path class="st0" d="M464,40c0.1-13.2-10.6-24-23.8-24c-8.9,0-17,4.8-21.2,12.6c-1-0.2-2-0.3-3-0.3c-13.3,0-24,10.7-24,24
		c0,13.3,10.7,24,24,24c1.1,0,2.2-0.1,3.3-0.3c6.5,11.5,21.1,15.5,32.6,9c11.5-6.5,15.5-21.1,9-32.6c-0.1-0.2-0.2-0.3-0.3-0.5
		C462.8,48.4,464,44.2,464,40"/>
</g>
</svg>
