<?xml version="1.0" encoding="utf-8"?>
<!-- Generator: Adobe Illustrator 22.1.0, SVG Export Plug-In . SVG Version: 6.00 Build 0)  -->
<svg version="1.1" id="Layer_1" xmlns="http://www.w3.org/2000/svg" xmlns:xlink="http://www.w3.org/1999/xlink" x="0px" y="0px"
	 viewBox="0 0 40 38" style="enable-background:new 0 0 40 38;" xml:space="preserve">
<style type="text/css">
	.st0{clip-path:url(#SVGID_2_);fill:#FFB74D;}
	.st1{clip-path:url(#SVGID_2_);fill:#546E7A;}
	.st2{clip-path:url(#SVGID_2_);fill:#1976D2;}
	.st3{clip-path:url(#SVGID_2_);fill:#DD2C00;}
	.st4{clip-path:url(#SVGID_2_);fill:#2196F3;}
</style>
<g>
	<defs>
		<rect id="SVGID_1_" width="40" height="38"/>
	</defs>
	<clipPath id="SVGID_2_">
		<use xlink:href="#SVGID_1_"  style="overflow:visible;"/>
	</clipPath>
	<path class="st0" d="M32,8c2.2,0,4-1.8,4-4s-1.8-4-4-4s-4,1.8-4,4S29.8,8,32,8"/>
	<rect x="0.7" y="27.3" transform="matrix(0.7071 -0.7071 0.7071 0.7071 -16.716 16.2696)" class="st1" width="21.2" height="2"/>
	<path class="st2" d="M18,23c-0.5,0-1-0.2-1.4-0.6c-0.8-0.8-0.8-2,0-2.8l9.2-9.4c0.8-0.8,2-0.8,2.8,0c0.8,0.8,0.8,2,0,2.8l-9.2,9.4
		C19,22.8,18.5,23,18,23"/>
	<path class="st3" d="M11,24c-0.7-0.7-1.6-1-2.5-1c-0.9,0-1.8,0.3-2.5,1c-0.8,0.8-4.2,4.2-5,5c-0.7,0.7-1,1.6-1,2.5
		c0,0.9,0.3,1.8,1,2.5c1.4,1.4,3,3,3,3l10-10C14,27,11.4,24.4,11,24"/>
	<path class="st1" d="M5,34c-1.1,0-2,0.9-2,2s0.9,2,2,2s2-0.9,2-2S6.1,34,5,34"/>
	<polygon class="st2" points="30.9,16.9 28.9,23.3 27.4,21.5 29.4,14.7 	"/>
	<path class="st2" d="M23.7,22l-1.6,6.2L18.3,35c-0.5,1-0.2,2.2,0.7,2.7c0.3,0.2,0.7,0.3,1,0.3c0.7,0,1.4-0.4,1.7-1l4-7
		c0.1-0.1,0.1-0.3,0.2-0.4l2.2-7.6H23.7z"/>
	<path class="st4" d="M38.9,18.2l-3.5-1.8l-3.9-5.9c-0.4-0.7-1.1-1.2-1.9-1.4c-0.3-0.1-0.7-0.1-1-0.1c-1.5,0-2.9,1-3.4,2.5l-3,10
		c-0.4,1.3,0,2.5,0.8,3.4c1.4,1.5,6.1,4.9,6.1,4.9l0.9,6.4c0.1,1,1,1.7,2,1.7c0.1,0,0.2,0,0.3,0c1-0.1,1.7-1,1.7-2
		c0-0.1,0-0.2,0-0.3l-1-7c-0.1-0.4-0.2-0.7-0.5-1l-3.6-4.4l1.9-6.4l1.5,2.2c0.2,0.3,0.5,0.5,0.8,0.7l4,2c0.3,0.1,0.6,0.2,0.9,0.2
		c0.7,0,1.4-0.4,1.8-1.1C40.3,19.9,39.9,18.7,38.9,18.2"/>
</g>
</svg>
