<?xml version="1.0" encoding="utf-8"?>
<!-- Generator: Adobe Illustrator 22.1.0, SVG Export Plug-In . SVG Version: 6.00 Build 0)  -->
<svg version="1.1" id="Layer_1" xmlns="http://www.w3.org/2000/svg" xmlns:xlink="http://www.w3.org/1999/xlink" x="0px" y="0px"
	 viewBox="0 0 512 512" style="enable-background:new 0 0 512 512;" xml:space="preserve">
<style type="text/css">
	.st0{clip-path:url(#SVGID_2_);fill:#AFB4C8;}
	.st1{clip-path:url(#SVGID_2_);fill:#195285;}
	.st2{clip-path:url(#SVGID_2_);fill:#FBBB87;}
	.st3{clip-path:url(#SVGID_2_);fill:#22629D;}
	.st4{clip-path:url(#SVGID_2_);fill:#E01F26;}
	.st5{clip-path:url(#SVGID_2_);fill:#DCE1EA;}
</style>
<g>
	<defs>
		<rect id="SVGID_1_" width="512" height="512"/>
	</defs>
	<clipPath id="SVGID_2_">
		<use xlink:href="#SVGID_1_"  style="overflow:visible;"/>
	</clipPath>
	<path class="st0" d="M480.1,203.6c-1.9-2.1-4.6-3.2-7.4-3.2l-77.8,0c-2.8,0-5.5,1.2-7.4,3.2c-1.9,2.1-2.9,4.8-2.7,7.6l3.8,60.6
		c0.3,5.4,4.8,9.6,10.2,9.6h70.1c5.4,0,9.8-4.2,10.2-9.6l3.8-60.6C483.1,208.4,482.1,205.6,480.1,203.6"/>
	<path class="st0" d="M456.8,445.3h-46c-5.6,0-10.2,4.6-10.2,10.2v23.3c0,18.3,14.9,33.2,33.2,33.2c18.3,0,33.2-14.9,33.2-33.2
		v-23.3C467,449.9,462.5,445.3,456.8,445.3"/>
	<path class="st1" d="M433.8,0L433.8,0c-19.4,0-37.6,7.6-51.3,21.3c-13.7,13.7-21.2,31.9-21.2,51.3c0,25.5,13.6,49.4,35.5,62.4
		c1.6,0.9,3.4,1.4,5.2,1.4l63.6,0h0c1.8,0,3.6-0.5,5.2-1.4c21.9-13,35.6-37,35.6-62.5C506.4,32.6,473.8,0,433.8,0"/>
	<path class="st2" d="M507.3,338.1c0-9.3-3.4-15.5-5.9-20.1c-1-1.8-2-3.8-2-4.6c0-1.1,1.4-3.7,2.5-5.8c2.4-4.5,5.4-10.1,5.4-17.4
		c0-14.5-11-29.3-32.2-29.3H390l-0.4-6.4c-0.1-5.4-2.6-10.6-7-14.7c-7.3-6.7-19.4-10.2-31.8-9.1c-14.7,1.3-48.7,12.3-62.4,19.1
		c-15.5,7.8-26.3,17.8-32.9,30.8c-0.7,1.4-1.1,3-1.1,4.7v180.7h214.9c12.7,0,31.1-10.4,31.1-26.7c0-11.1-1.6-15.8-3.4-20
		c-0.7-1.7-0.9-2.1-0.9-4.5c0-1.4,0.6-2.4,2.8-5.5c3.1-4.2,7.7-10.5,8-21c0.2-7.3-2.6-13.8-4.8-19.1c-1.1-2.7-2.6-6.1-2.6-7.6
		c0-0.6,1-2.3,1.9-3.8C503.7,353.7,507.3,347.5,507.3,338.1"/>
	<path class="st3" d="M248,277.6H10.2c-5.6,0-10.2,4.4-10.2,9.9v165.7c0,5.5,4.6,9.9,10.2,9.9H248c5.6,0,10.2-4.4,10.2-9.9V287.5
		C258.2,282.1,253.7,277.6,248,277.6"/>
	<path class="st4" d="M483.9,116.7H383.8c-15.5,0-28.1,12.6-28.1,28.1v47.8c0,15.5,12.6,28.1,28.1,28.1h100.2
		c15.5,0,28.1-12.6,28.1-28.1v-47.8C512,129.3,499.4,116.7,483.9,116.7"/>
	<path class="st5" d="M253.1,271.2h-76.7c-5.6,0-10.2,4.8-10.2,10.6v177.1c0,5.9,4.6,10.6,10.2,10.6h76.7c5.6,0,10.2-4.8,10.2-10.6
		V281.8C263.3,275.9,258.8,271.2,253.1,271.2"/>
</g>
</svg>
