<?xml version="1.0" encoding="utf-8"?>
<!-- Generator: Adobe Illustrator 22.1.0, SVG Export Plug-In . SVG Version: 6.00 Build 0)  -->
<svg version="1.1" id="Layer_1" xmlns="http://www.w3.org/2000/svg" xmlns:xlink="http://www.w3.org/1999/xlink" x="0px" y="0px"
	 viewBox="0 0 33.3 27" style="enable-background:new 0 0 33.3 27;" xml:space="preserve">
<style type="text/css">
	.st0{fill:#0092AD;}
	.st1{fill:#FFCA00;}
</style>
<g id="surface427261">
	<path class="st0" d="M19.4,0h-6c-1.1,0-2,0.9-2,2v3c0,0.6,0.4,1,1,1h1V2h6v4h1c0.6,0,1-0.4,1-1V2C21.4,0.9,20.5,0,19.4,0z"/>
	<path class="st0" d="M31.3,4H2C0.9,4,0,4.9,0,6v19c0,1.1,0.9,2,2,2h29.3c1.1,0,2-0.9,2-2V6C33.3,4.9,32.4,4,31.3,4z"/>
	<path class="st1" d="M5.4,4h2v23h-2V4z M25.4,4h2v23h-2V4z"/>
</g>
</svg>
