<?xml version="1.0" encoding="utf-8"?>
<!-- Generator: Adobe Illustrator 22.1.0, SVG Export Plug-In . SVG Version: 6.00 Build 0)  -->
<svg version="1.1" id="Layer_1" xmlns="http://www.w3.org/2000/svg" xmlns:xlink="http://www.w3.org/1999/xlink" x="0px" y="0px"
	 viewBox="0 0 347.3 453.9" style="enable-background:new 0 0 347.3 453.9;" xml:space="preserve">
<style type="text/css">
	.st0{clip-path:url(#SVGID_2_);fill:#F7B237;}
	.st1{clip-path:url(#SVGID_2_);fill:#55B452;}
	.st2{clip-path:url(#SVGID_2_);fill:#D9EFF5;}
	.st3{clip-path:url(#SVGID_2_);fill:#989898;}
	.st4{clip-path:url(#SVGID_2_);fill:#5CC5EC;}
</style>
<g>
	<defs>
		<rect id="SVGID_1_" width="347.3" height="453.9"/>
	</defs>
	<clipPath id="SVGID_2_">
		<use xlink:href="#SVGID_1_"  style="overflow:visible;"/>
	</clipPath>
	<path class="st0" d="M141,387.4c0,36.7-29.8,66.5-66.5,66.5S8,424.1,8,387.4s29.8-66.5,66.5-66.5S141,350.7,141,387.4"/>
	<path class="st1" d="M0,267.1L0,267.1c42.9,0,77.7,34.8,77.8,77.7C34.8,344.8,0,310,0,267.1L0,267.1z"/>
	<path class="st2" d="M333.7,118.5l-40.7,0.3l-149.2,1l4.5,87.2l27.4-19.5c22.5-16,49.7-17.4,73.1-3.7c23.5,13.6,50.6,12.2,73.1-3.7
		l22.9-16.4l2.4-45.2L333.7,118.5z"/>
	<path class="st3" d="M245,181.1l-17.4-5.4V68.3c0-3,1.5-5.7,4-7.3L327.3,0l9.3,14.7L245,73V181.1z"/>
	<path class="st4" d="M330.4,443.4l14.5-279.8L322,180c-22.5,16-49.7,17.4-73.1,3.7c-23.5-13.7-50.6-12.3-73.1,3.7l-27.4,19.5
		l9.1,236.5H330.4z"/>
</g>
</svg>
