<?xml version="1.0" encoding="utf-8"?>
<!-- Generator: Adobe Illustrator 22.1.0, SVG Export Plug-In . SVG Version: 6.00 Build 0)  -->
<svg version="1.1" id="Layer_1" xmlns="http://www.w3.org/2000/svg" xmlns:xlink="http://www.w3.org/1999/xlink" x="0px" y="0px"
	 viewBox="0 0 59 58" style="enable-background:new 0 0 59 58;" xml:space="preserve">
<style type="text/css">
	.st0{clip-path:url(#SVGID_2_);fill:#F4ADC9;}
	.st1{clip-path:url(#SVGID_2_);fill:#FFFFFF;}
	.st2{clip-path:url(#SVGID_2_);fill:#E685A5;}
	.st3{clip-path:url(#SVGID_2_);fill:#FFD949;}
</style>
<g>
	<defs>
		<rect id="SVGID_1_" y="0" width="59" height="58"/>
	</defs>
	<clipPath id="SVGID_2_">
		<use xlink:href="#SVGID_1_"  style="overflow:visible;"/>
	</clipPath>
	<path class="st0" d="M52.8,33.9c-0.1,0-0.2,0-0.3,0c-1.9,0-3.5-1.6-3.5-3.5c0-1.5,0.9-2.7,2.2-3.2c-1.9-5.1-5.5-8.9-10.1-11.3
		c0,0,0,0,0,0c-0.6,1.6-1.6,2.9-2.8,4.1c-4.7-2.5-10.3-2.2-14.8,0.7c-1.8-1.4-3.2-3.3-3.9-5.5c0-0.1-0.1-0.1-0.1-0.2
		c-1.4,0.5-2.7,0.9-3.5,1.2c-4.2-1.7-7.1-2.4-9.7-2.2c-0.4,0-0.4,0.5-0.1,0.7C8.6,15.8,9,18.8,10,21c-3,2.9-3.3,5.1-3.9,8.9H4
		c-2.9,0-4,2.3-4,5.2v3.6c0,2.9,1.1,5.2,4,5.2h1.3c3,8.7,13.5,13.3,24.4,13.3c13.4,0,23.3-7.7,23.3-19.3
		C53,36.5,52.9,35.2,52.8,33.9"/>
	<path class="st1" d="M16,28.4c0,1.4-1.1,2.5-2.5,2.5S11,29.8,11,28.4c0-1.4,1.1-2.5,2.5-2.5S16,27,16,28.4"/>
	<path class="st0" d="M53,37.9c-0.6,0-1-0.4-1-1c0-0.6,0.4-1,1-1c2.2,0,4-1.8,4-4c0-0.6,0.4-1,1-1c0.6,0,1,0.4,1,1
		C59,35.2,56.3,37.9,53,37.9"/>
	<path class="st0" d="M58,32.9c-0.6,0-1-0.4-1-1c0-2.2-1.8-4-4-4c-0.6,0-1-0.4-1-1s0.4-1,1-1c3.3,0,6,2.7,6,6
		C59,32.5,58.6,32.9,58,32.9"/>
	<path class="st0" d="M52.5,34.9c-2.5,0-4.5-2-4.5-4.5c0-2.5,2-4.5,4.5-4.5c2.5,0,4.5,2,4.5,4.5C57,32.9,55,34.9,52.5,34.9
		 M52.5,27.9c-1.4,0-2.5,1.1-2.5,2.5c0,1.4,1.1,2.5,2.5,2.5c1.4,0,2.5-1.1,2.5-2.5C55,29,53.9,27.9,52.5,27.9"/>
	<path class="st0" d="M56,30.9c-0.1,0-0.3,0-0.4-0.1c-0.5-0.2-0.7-0.8-0.5-1.3c0.6-1.3,0.6-2.8,0-4.1c-0.2-0.5,0-1.1,0.5-1.3
		c0.5-0.2,1.1,0,1.3,0.5c0.8,1.8,0.8,4,0,5.8C56.7,30.6,56.3,30.9,56,30.9"/>
	<path class="st0" d="M48.7,49.6c-2.4,2.8-5.7,4.9-9.7,6.2l0.3,1c0.2,0.7,0.9,1.2,1.6,1.2h6c2.3,0,3.9-2.3,3.2-4.5L48.7,49.6z"/>
	<path class="st0" d="M9,49.8l-1.6,4C6.5,55.8,8,58,10.2,58h6.7c0.4,0,0.8-0.3,1-0.7l0.7-1.8C14.8,54.3,11.5,52.3,9,49.8"/>
	<path class="st2" d="M41.9,23.6c-0.3,0-0.5-0.1-0.7-0.3c-5.4-5.4-14.1-5.4-19.5,0c-0.4,0.4-1,0.4-1.4,0c-0.4-0.4-0.4-1,0-1.4
		c6.1-6.1,16.1-6.1,22.3,0c0.4,0.4,0.4,1,0,1.4C42.4,23.5,42.1,23.6,41.9,23.6"/>
	<path class="st3" d="M22.7,19.9c4.9-3.3,11.2-3.5,16.3-0.7c1.8-2,3-4.7,3-7.7C42,5.1,36.9,0,30.5,0S19,5.1,19,11.5
		C19,14.8,20.4,17.8,22.7,19.9"/>
</g>
</svg>
