<?xml version="1.0" encoding="utf-8"?>
<!-- Generator: Adobe Illustrator 22.1.0, SVG Export Plug-In . SVG Version: 6.00 Build 0)  -->
<svg version="1.1" id="Layer_1" xmlns="http://www.w3.org/2000/svg" xmlns:xlink="http://www.w3.org/1999/xlink" x="0px" y="0px"
	 viewBox="0 0 464.3 511" style="enable-background:new 0 0 464.3 511;" xml:space="preserve">
<style type="text/css">
	.st0{fill:#FF491F;}
	.st1{fill:#ED3618;}
	.st2{fill:#FFE14D;}
	.st3{clip-path:url(#SVGID_2_);fill:#3C3F4D;}
</style>
<polygon class="st0" points="39.5,130.8 0,511 389,511 356.1,194.3 349.5,130.8 "/>
<polygon class="st1" points="199.8,253.8 172.3,511 442.8,511 415.3,253.8 "/>
<polygon class="st2" points="221.4,253.8 193.9,511 464.3,511 464.3,511 436.9,253.8 "/>
<g>
	<defs>
		<rect id="SVGID_1_" width="464.3" height="511"/>
	</defs>
	<clipPath id="SVGID_2_">
		<use xlink:href="#SVGID_1_"  style="overflow:visible;"/>
	</clipPath>
	<path class="st3" d="M278.2,175.7c-4.3,0-7.7-3.4-7.7-7.7V91.3c0-41.9-34.1-75.9-75.9-75.9s-75.9,34.1-75.9,75.9V168
		c0,4.3-3.5,7.7-7.7,7.7c-4.3,0-7.7-3.4-7.7-7.7V91.3c0-50.4,41-91.3,91.3-91.3c50.4,0,91.3,41,91.3,91.3V168
		C285.9,172.3,282.4,175.7,278.2,175.7"/>
	<path class="st3" d="M329.1,408.3c-31.8,0-57.7-25.9-57.7-57.7v-50c0-4.3,3.4-7.7,7.7-7.7c4.3,0,7.7,3.5,7.7,7.7v50
		c0,23.3,19,42.2,42.3,42.2c23.3,0,42.2-19,42.2-42.2v-50c0-4.3,3.4-7.7,7.7-7.7c4.3,0,7.7,3.5,7.7,7.7v50
		C386.8,382.4,360.9,408.3,329.1,408.3"/>
</g>
</svg>
