<?xml version="1.0" encoding="utf-8"?>
<!-- Generator: Adobe Illustrator 23.0.2, SVG Export Plug-In . SVG Version: 6.00 Build 0)  -->
<svg version="1.1" id="Layer_1" xmlns="http://www.w3.org/2000/svg" xmlns:xlink="http://www.w3.org/1999/xlink" x="0px" y="0px"
	 viewBox="0 0 310.9 69.2" style="enable-background:new 0 0 310.9 69.2; width: 41%;" xml:space="preserve">
<style type="text/css">
	.st0{fill:#FFFFFF;}
	.st1{fill:url(#SVGID_1_);}
	.st2{fill:url(#SVGID_2_);}
	.st3{fill:url(#SVGID_3_);}
</style>
<g>
	<g>
		<path class="st0" d="M86.2,2.8h14.4v28.5l26.5-28.5h17.3l-26.6,27.7L145.6,68h-17.2l-20.2-27.8l-7.6,7.8V68H86.2V2.8z"/>
		<path class="st0" d="M138,43.3v-0.2c0-14.4,11.6-26,27.1-26c15.5,0,26.9,11.5,26.9,25.8v0.2c0,14.4-11.6,26-27.1,26
			C149.5,69.2,138,57.7,138,43.3z M178.1,43.3v-0.2c0-7.4-5.3-13.8-13.1-13.8c-8.1,0-13,6.2-13,13.6v0.2c0,7.4,5.3,13.8,13.1,13.8
			C173.2,57,178.1,50.7,178.1,43.3z"/>
		<path class="st0" d="M196,53.9V30.2h-6V18.1h6V5.3h14.2v12.8h11.7v12.1h-11.7v21.3c0,3.3,1.4,4.8,4.6,4.8c2.4,0,4.8-0.6,7-1.8V66
			c-3,1.8-6.4,2.9-11.2,2.9C201.8,68.9,196,65.4,196,53.9L196,53.9z M225.9,0h14.2v68h-14.2V0z M245.2,0h14.9v12.6h-14.9V0z
			 M245.6,18.1h14.2v50h-14.2L245.6,18.1z M265.2,18.1h14.2v7.1c3.3-4.2,7.5-8,14.6-8c10.7,0,17,7.1,17,18.5V68h-14.2V40.2
			c0-6.7-3.2-10.2-8.6-10.2c-5.4,0-8.9,3.4-8.9,10.2V68h-14.2L265.2,18.1z"/>
	</g>
	
		<linearGradient id="SVGID_1_" gradientUnits="userSpaceOnUse" x1="2438.1492" y1="770.8262" x2="2454.5391" y2="787.2164" gradientTransform="matrix(3.7037 0 0 -3.7037 -9041.1641 2917.6521)">
		<stop  offset="0.108" style="stop-color:#C757BC"/>
		<stop  offset="0.173" style="stop-color:#CD5CA9"/>
		<stop  offset="0.492" style="stop-color:#E8744F"/>
		<stop  offset="0.716" style="stop-color:#F88316"/>
		<stop  offset="0.823" style="stop-color:#FF8900"/>
	</linearGradient>
	<path class="st1" d="M32.8,2.8L0,37.2V68l32.7-32.8L65.2,2.8L32.8,2.8L32.8,2.8z"/>
	
		<linearGradient id="SVGID_2_" gradientUnits="userSpaceOnUse" x1="2446.7356" y1="766.2288" x2="2454.7244" y2="774.2178" gradientTransform="matrix(3.7037 0 0 -3.7037 -9041.1641 2917.6521)">
		<stop  offset="0.296" style="stop-color:#00AFFF"/>
		<stop  offset="0.694" style="stop-color:#5282FF"/>
		<stop  offset="1" style="stop-color:#945DFF"/>
	</linearGradient>
	<path class="st2" d="M0,68l32.7-32.8L65.2,68L0,68L0,68z"/>
	
		<linearGradient id="SVGID_3_" gradientUnits="userSpaceOnUse" x1="2440.9028" y1="782.1586" x2="2446.5071" y2="787.7629" gradientTransform="matrix(3.7037 0 0 -3.7037 -9041.1641 2917.6521)">
		<stop  offset="0.296" style="stop-color:#00AFFF"/>
		<stop  offset="0.694" style="stop-color:#5282FF"/>
		<stop  offset="1" style="stop-color:#945DFF"/>
	</linearGradient>
	<path class="st3" d="M0,2.8h32.8L0,37.2V2.8z"/>
</g>
</svg>
