<?xml version="1.0" encoding="utf-8"?>
<!-- Generator: Adobe Illustrator 21.1.0, SVG Export Plug-In . SVG Version: 6.00 Build 0)  -->
<svg version="1.1" id="Layer_1" xmlns="http://www.w3.org/2000/svg" xmlns:xlink="http://www.w3.org/1999/xlink" x="0px" y="0px"
	 viewBox="0 0 113 82.7" style="enable-background:new 0 0 113 82.7;" xml:space="preserve">
<style type="text/css">
	.st0{fill-rule:evenodd;clip-rule:evenodd;fill:#FFFFFF;}
</style>
<g>
	<path class="st0" d="M81.8,11.6c0,0.1,0,0.1,0,0.2v11c0,0.3-0.2,0.6-0.4,0.7l-9.2,5.3v10.5c0,0.3-0.2,0.5-0.4,0.7L52.6,51
		c0,0-0.1,0-0.1,0.1c0,0,0,0-0.1,0c-0.1,0-0.3,0-0.4,0c0,0,0,0-0.1,0c0,0-0.1,0-0.1-0.1L32.6,39.9c-0.2-0.1-0.4-0.4-0.4-0.7V6.3
		c0-0.1,0-0.1,0-0.2c0,0,0,0,0-0.1c0,0,0-0.1,0.1-0.1c0,0,0,0,0.1-0.1c0,0,0-0.1,0.1-0.1c0,0,0.1,0,0.1-0.1c0,0,0.1-0.1,0.1-0.1h0
		l9.6-5.5C42.5,0,42.8,0,43,0.1l9.6,5.5h0c0,0,0.1,0,0.1,0.1c0,0,0.1,0,0.1,0.1c0,0,0,0.1,0.1,0.1c0,0,0,0,0.1,0.1C53,6,53,6,53,6.1
		c0,0,0,0,0,0.1c0,0.1,0,0.1,0,0.2v20.6l8-4.6V11.8c0-0.1,0-0.1,0-0.2c0,0,0,0,0-0.1c0,0,0-0.1,0.1-0.1c0,0,0,0,0.1-0.1
		c0,0,0-0.1,0.1-0.1c0,0,0.1,0,0.1-0.1c0,0,0.1-0.1,0.1-0.1h0l9.6-5.5c0.2-0.1,0.6-0.1,0.8,0l9.6,5.5c0,0,0.1,0,0.1,0.1
		c0,0,0.1,0,0.1,0.1c0,0,0,0.1,0.1,0.1c0,0,0,0,0.1,0.1C81.8,11.4,81.8,11.5,81.8,11.6C81.8,11.5,81.8,11.5,81.8,11.6z M80.3,22.3
		v-9.1l-3.4,1.9l-4.6,2.7v9.1L80.3,22.3L80.3,22.3z M70.7,38.8v-9.1l-4.6,2.6l-13,7.4v9.2L70.7,38.8z M33.8,7.7v31.1l17.6,10.1v-9.2
		l-9.2-5.2l0,0l0,0c0,0-0.1,0-0.1-0.1c0,0-0.1,0-0.1-0.1l0,0c0,0,0-0.1-0.1-0.1c0,0,0,0-0.1-0.1l0,0c0,0,0-0.1,0-0.1
		c0,0,0-0.1,0-0.1v0c0,0,0-0.1,0-0.1c0,0,0-0.1,0-0.1v0V12.3l-4.6-2.7L33.8,7.7L33.8,7.7z M42.6,1.7l-8,4.6l8,4.6l8-4.6L42.6,1.7
		L42.6,1.7z M46.8,30.5l4.6-2.7V7.7l-3.4,1.9l-4.6,2.7v20.1L46.8,30.5z M71.5,7.2l-8,4.6l8,4.6l8-4.6L71.5,7.2z M70.7,17.8L66,15.1
		l-3.4-1.9v9.1l4.6,2.7l3.4,1.9V17.8z M52.2,38.3L64,31.6l5.9-3.4l-8-4.6L52.6,29l-8.4,4.8L52.2,38.3z"/>
	<g>
		<path class="st0" d="M4.4,55.2v23h8.3v4H0v-27H4.4z M28.5,66.7v-2.4h4.2v18h-4.2v-2.4c-0.6,0.9-1.4,1.6-2.4,2.1
			c-1,0.5-2.1,0.8-3.1,0.8c-1.4,0-2.6-0.3-3.7-0.8c-1.1-0.5-2.1-1.2-2.9-2.1c-0.8-0.9-1.5-1.9-1.9-3c-0.5-1.2-0.7-2.4-0.7-3.6
			c0-1.3,0.2-2.5,0.7-3.6c0.4-1.1,1.1-2.1,1.9-3c0.8-0.9,1.8-1.6,2.9-2.1c1.1-0.5,2.4-0.8,3.7-0.8c1.1,0,2.1,0.3,3.1,0.8
			C27.1,65.1,27.9,65.8,28.5,66.7L28.5,66.7z M28.1,75.5c0.3-0.7,0.4-1.4,0.4-2.2c0-0.8-0.1-1.5-0.4-2.2c-0.2-0.7-0.6-1.3-1.1-1.8
			c-0.5-0.5-1-0.9-1.7-1.2c-0.7-0.3-1.4-0.5-2.2-0.5c-0.8,0-1.5,0.2-2.2,0.5c-0.6,0.3-1.2,0.7-1.7,1.2c-0.5,0.5-0.8,1.1-1.1,1.8
			c-0.2,0.7-0.4,1.5-0.4,2.2c0,0.8,0.1,1.5,0.4,2.2c0.2,0.7,0.6,1.3,1.1,1.8c0.5,0.5,1,0.9,1.7,1.2c0.6,0.3,1.4,0.5,2.2,0.5
			s1.5-0.2,2.2-0.5c0.6-0.3,1.2-0.7,1.7-1.2C27.5,76.7,27.8,76.1,28.1,75.5z M36,82.2v-18h11.4v4.1h-7.2v13.8L36,82.2L36,82.2z
			 M62.7,66.7v-2.4h4.2v18h-4.2v-2.4c-0.6,0.9-1.4,1.6-2.4,2.1c-1,0.5-2.1,0.8-3.1,0.8c-1.4,0-2.6-0.3-3.7-0.8
			c-1.1-0.5-2.1-1.2-2.9-2.1c-0.8-0.9-1.5-1.9-1.9-3c-0.5-1.2-0.7-2.4-0.7-3.6c0-1.3,0.2-2.5,0.7-3.6c0.4-1.1,1.1-2.1,1.9-3
			c0.8-0.9,1.8-1.6,2.9-2.1c1.1-0.5,2.4-0.8,3.7-0.8c1.1,0,2.1,0.3,3.1,0.8C61.3,65.1,62.1,65.8,62.7,66.7z M62.3,75.5
			c0.3-0.7,0.4-1.4,0.4-2.2c0-0.8-0.1-1.5-0.4-2.2c-0.2-0.7-0.6-1.3-1.1-1.8c-0.5-0.5-1-0.9-1.7-1.2c-0.7-0.3-1.4-0.5-2.2-0.5
			c-0.8,0-1.5,0.2-2.2,0.5c-0.6,0.3-1.2,0.7-1.7,1.2c-0.5,0.5-0.8,1.1-1.1,1.8c-0.2,0.7-0.4,1.5-0.4,2.2c0,0.8,0.1,1.5,0.4,2.2
			c0.2,0.7,0.6,1.3,1.1,1.8c0.5,0.5,1,0.9,1.7,1.2c0.6,0.3,1.4,0.5,2.2,0.5c0.8,0,1.5-0.2,2.2-0.5c0.6-0.3,1.2-0.7,1.7-1.2
			C61.7,76.7,62,76.1,62.3,75.5z M83.7,64.3H88l-6.9,18h-5.3l-6.9-18h4.3L78.4,78L83.7,64.3z M97.2,63.8c5.7,0,9.6,5.1,8.9,11h-14
			c0,1.6,1.6,4.6,5.3,4.6c3.2,0,5.3-2.8,5.3-2.8l2.8,2.2c-2.5,2.7-4.6,4-7.9,4c-5.8,0-9.8-3.7-9.8-9.5C87.9,68,92,63.8,97.2,63.8
			L97.2,63.8z M92.1,71.7h10.1c0-0.3-0.6-4.6-5.1-4.6C92.6,67.1,92.2,71.3,92.1,71.7z M108.8,82.2v-27h4.2v27H108.8z"/>
	</g>
</g>
</svg>
