<?xml version="1.0" encoding="utf-8"?>
<!-- Generator: Adobe Illustrator 22.1.0, SVG Export Plug-In . SVG Version: 6.00 Build 0)  -->
<svg version="1.1" id="Layer_1" xmlns="http://www.w3.org/2000/svg" xmlns:xlink="http://www.w3.org/1999/xlink" x="0px" y="0px"
	 viewBox="0 0 155.8 85.4" style="enable-background:new 0 0 155.8 85.4;" xml:space="preserve">
<style type="text/css">
	.st0{fill:#232531;}
	.st1{fill:#6E83C4;}
	.st2{fill:#FFFFFF;}
</style>
<g>
	<path class="st0" d="M28.3,64l7.6-38.3h17.5c7.6,0.5,11.4,4.3,11.4,10.9c0,11.4-9,18-17,17.5h-8.5L37.2,64H28.3z M41,46.9l2.4-14.2
		h6.1c3.3,0,5.7,1.4,5.7,4.3c-0.5,8-4.3,9.5-8.5,9.9L41,46.9L41,46.9z M62.9,54l7.6-38.3h9l-1.9,9.9h8.5c7.6,0.5,10.4,4.3,9.5,9
		L92.2,54h-9.5l3.3-17.5c0.5-2.4,0.5-3.8-2.8-3.8h-7.1L71.9,54H62.9z M91.6,64l7.6-38.3h17.5c7.6,0.5,11.4,4.3,11.4,10.9
		c0,11.4-9,18-17,17.5h-8.5l-1.9,9.9H91.6z M104.4,46.9l2.4-14.2h6.1c3.3,0,5.7,1.4,5.7,4.3c-0.5,8-4.3,9.5-8.5,9.9H104.4
		L104.4,46.9z"/>
	<ellipse class="st1" cx="77.9" cy="42.7" rx="77.9" ry="42.7"/>
	<path class="st2" d="M53.3,25.6H35.8L28.3,64h9l1.9-9.9h8.5c8,0.5,17-6.1,17-17.5C64.7,29.9,60.9,26.1,53.3,25.6z M46.7,46.9H41h0
		l2.4-14.2h6.1c3.3,0,5.7,1.4,5.7,4.3C54.7,45,51,46.5,46.7,46.9z"/>
	<path class="st2" d="M62.9,54l7.6-38.3h9l-1.9,9.9h8.5c7.6,0.5,10.4,4.3,9.5,9L92.2,54h-9.5l3.3-17.5c0.5-2.4,0.5-3.8-2.8-3.8h-7.1
		L71.9,54H62.9z"/>
	<path class="st2" d="M116.7,25.6H99.2L91.6,64h9l1.9-9.9h8.5c8,0.5,17-6.1,17-17.5C128.1,29.9,124.3,26.1,116.7,25.6z M110.1,46.9
		h-5.7h0l2.4-14.2h6.1c3.3,0,5.7,1.4,5.7,4.3C118.1,45,114.3,46.5,110.1,46.9z"/>
</g>
</svg>
