<?xml version="1.0" encoding="utf-8"?>
<!-- Generator: Adobe Illustrator 21.1.0, SVG Export Plug-In . SVG Version: 6.00 Build 0)  -->
<svg version="1.1" id="Layer_1" xmlns="http://www.w3.org/2000/svg" xmlns:xlink="http://www.w3.org/1999/xlink" x="0px" y="0px"
	 viewBox="0 0 135.4 47.6" style="enable-background:new 0 0 135.4 47.6;" xml:space="preserve">
<style type="text/css">
	.st0{fill:#fff;}
</style>
<g>
	<path class="st0" d="M117.8,41.4v6.2H129c2.3,0,6.2-1.7,6.4-6.4v-2.4c0-4-3.3-6.4-6.4-6.4h-5.6v-2.9h11v-6.2h-10.6
		c-2.7,0-6.4,2.3-6.4,6.5V32c0,4.2,3.6,6.4,6.4,6.4c7.7,0-1.8,0,5.3,0v3 M65.6,47.6l-7.6-7.7c0,0,6-0.5,6-8.2c0-7.7-7.3-8.4-7.3-8.4
		H43.6v24.4h6.6v-5.9l5.7,5.9 M55.4,34.9h-5.2v-5.6h5.3c0,0,1.5,0.5,1.5,2.8C56.9,34.3,55.4,34.9,55.4,34.9 M80.1,23.4h-6.7
		c-4.8,0-6.4,4.3-6.4,6.4v17.8h6.7v-4.3H80v4.3h6.5V29.8C86.5,24.6,81.8,23.4,80.1,23.4 M80,36.4h-6.3v-5.9c0,0,0-1.3,2.1-1.3h2.3
		c1.8,0,1.9,1.3,1.9,1.3L80,36.4L80,36.4z M89.5,23.4h6.9v24.2h-6.9V23.4z M106.2,41.3v-18h-6.9v24.2h16.2v-6.3H106.2z"/>
	<path class="st0" d="M2.4,47.6h27c0,0-5.2-23.6,11.9-33.1c3.7-1.8,15.6-8.6,35,5.8c0.6-0.5,1.2-0.9,1.2-0.9S59.8,1.6,40,3.6
		c-10,0.9-22.2,10-29.4,21.9C3.4,37.5,2.4,47.6,2.4,47.6"/>
	<path class="st0" d="M55.4,12.8l-0.1,2.2c1.1,0,2.3,0.2,3.4,0.4l0.1-2.1C57.7,13,56.5,12.8,55.4,12.8 M42.8,2.1h0.3L42.4,0
		c-1.1,0-2.2,0.1-3.3,0.2l0.6,2C40.8,2.1,41.8,2.1,42.8,2.1 M44.4,14.7l0.8,2.4c1-0.5,2-0.9,3-1.2l-0.8-2.3
		C46.3,13.9,45.3,14.3,44.4,14.7 M28.9,5.7l-1.5-2.4c-0.9,0.4-1.7,0.9-2.7,1.5l1.6,2.4C27.2,6.6,28,6.1,28.9,5.7 M35.9,21.1l1.6,2.5
		c0.6-0.9,1.3-1.6,2-2.4L38,18.8C37.2,19.5,36.5,20.3,35.9,21.1 M30.9,32.1l2.8,2.2c0.1-1.3,0.4-2.7,0.7-4L32,28.3
		C31.5,29.6,31.2,30.8,30.9,32.1 M16,15.8l-2.4-2.1c-0.9,0.9-1.7,1.7-2.5,2.6l2.6,2.3C14.4,17.6,15.1,16.7,16,15.8 M5.6,31.1
		l-3.9-1.4c-0.6,1.5-1.4,3.2-1.7,4.1l3.9,1.4C4.4,34.1,5.1,32.4,5.6,31.1 M30.4,40.8c0.1,1.8,0.2,3.3,0.4,4.3l4.1,1.5
		c-0.3-1.3-0.6-2.8-0.8-4.4L30.4,40.8z"/>
</g>
</svg>
