<svg class="ai-tablue" xmlns="http://www.w3.org/2000/svg"
                          xmlns:xlink="http://www.w3.org/1999/xlink" version="1.1" id="Layer_6" x="0px" y="0px"
                          viewBox="0 0 311.7 60.9" style="enable-background:new 0 0 311.7 60.9;" xml:space="preserve">
                          <style type="text/css">
                            .ai-tablue .st0 {
                              fill: #E8762D;
                            }

                            .ai-tablue .st1 {
                              fill: #C72037;
                            }

                            .ai-tablue .st2 {
                              fill: #5B879B;
                            }

                            .ai-tablue .st3 {
                              fill: #5C6692;
                            }

                            .ai-tablue .st4 {
                              fill: #EB9129;
                            }

                            .ai-tablue .st5 {
                              fill-rule: evenodd;
                              clip-rule: evenodd;
                              fill: #1F457E;
                            }

                            .ai-tablue .st6 {
                              fill: #7199A6;
                            }

                            .ai-tablue .st7 {
                              fill-rule: evenodd;
                              clip-rule: evenodd;
                              fill: #5B879B;
                            }

                            .ai-tablue .st8 {
                              fill: #1F457E;
                            }
                          </style>
                          <g>
                            <polygon class="st0"
                              points="40.1,28 31.8,28 31.8,19 28.5,19 28.5,28 20.3,28 20.3,31.2 28.5,31.2 28.5,40.2 31.8,40.2 31.8,31.2    40.1,31.2  ">
                            </polygon>
                            <polygon class="st1"
                              points="23.4,42.7 16,42.7 16,34.6 13.2,34.6 13.2,42.7 5.8,42.7 5.8,45.2 13.2,45.2 13.2,53.2 16,53.2    16,45.2 23.4,45.2  ">
                            </polygon>
                            <polygon class="st2"
                              points="54.6,13.9 47.1,13.9 47.1,5.8 44.3,5.8 44.3,13.9 36.9,13.9 36.9,16.3 44.3,16.3 44.3,24.3 47.1,24.3    47.1,16.3 54.6,16.3  ">
                            </polygon>
                            <polygon class="st3"
                              points="36.5,51.7 31.4,51.7 31.4,46 29,46 29,51.7 24,51.7 24,53.8 29,53.8 29,59.5 31.4,59.5 31.4,53.8    36.5,53.8  ">
                            </polygon>
                            <polygon class="st4"
                              points="23.4,13.9 15.9,13.9 15.9,5.8 13.3,5.8 13.3,13.9 5.8,13.9 5.8,16.2 13.3,16.2 13.3,24.3 15.9,24.3    15.9,16.2 23.4,16.2  ">
                            </polygon>
                            <polygon class="st3"
                              points="60.3,28.5 55.2,28.5 55.2,22.9 52.8,22.9 52.8,28.5 47.8,28.5 47.8,30.7 52.8,30.7 52.8,36.3    55.2,36.3 55.2,30.7 60.3,30.7  ">
                            </polygon>
                            <polygon class="st5"
                              points="54.6,42.7 47.1,42.7 47.1,34.6 44.3,34.6 44.3,42.7 36.9,42.7 36.9,45.2 44.3,45.2 44.3,53.2    47.1,53.2 47.1,45.2 54.6,45.2  ">
                            </polygon>
                            <polygon class="st6"
                              points="29.3,0 29.3,5.5 24.3,5.5 24.3,7.2 29.3,7.2 29.3,12.7 31.1,12.7 31.1,7.2 36.1,7.2 36.1,5.5    31.1,5.5 31.1,0  ">
                            </polygon>
                            <polygon class="st6"
                              points="11.8,28.7 6.8,28.7 6.8,23.3 5,23.3 5,28.7 0,28.7 0,30.5 5,30.4 5,35.9 6.8,35.9 6.8,30.4 11.8,30.4     ">
                            </polygon>
                            <g>
                              <path class="st7"
                                d="M87.4,60.4c0.6,0.4,1.3,0.5,2,0.5c1.4,0,2.3-0.7,2.3-1.7c0-0.6-0.2-1.1-0.8-1.4c-0.4-0.3-0.9-0.4-1.4-0.6    c-0.5-0.2-0.8-0.4-0.8-0.6c0-0.3,0.3-0.5,0.8-0.5c0.5,0,1.1,0.2,1.9,0.6v-1.2c-0.7-0.3-1.3-0.5-1.9-0.5c-1.3,0-2.2,0.7-2.2,1.6    c0,1,0.7,1.5,2.1,2c0.5,0.2,0.8,0.3,0.8,0.6c0,0.3-0.3,0.5-0.9,0.5c-0.6,0-1.2-0.3-1.9-0.7V60.4z">
                              </path>
                              <path class="st7"
                                d="M115.4,58c0,0.8,0.3,1.6,0.9,2.1c0.6,0.5,1.3,0.8,2.2,0.8c0.9,0,1.6-0.3,2.2-0.8c0.6-0.6,0.9-1.3,0.9-2.1    c0-0.9-0.3-1.6-0.9-2.1c-0.6-0.5-1.3-0.8-2.2-0.8c-0.9,0-1.6,0.3-2.2,0.8C115.7,56.4,115.4,57.2,115.4,58 M116.9,58    c0-1,0.7-1.8,1.6-1.8c0.9,0,1.6,0.7,1.6,1.8c0,1-0.7,1.7-1.6,1.7C117.5,59.7,116.9,59,116.9,58">
                              </path>
                              <polygon class="st7"
                                points="146.9,60.8 148.3,60.8 148.3,58.5 150.4,58.5 150.4,57.4 148.3,57.4 148.3,56.2 150.5,56.2     150.5,55.1 146.9,55.1   ">
                              </polygon>
                              <polygon class="st7"
                                points="177.2,60.8 178.7,60.8 178.7,56.2 180.5,56.2 180.5,55.1 175.3,55.1 175.3,56.2 177.2,56.2   ">
                              </polygon>
                              <polygon class="st7"
                                points="205.8,60.9 206.4,60.9 207.7,57.3 209,60.9 209.6,60.9 211.9,55.1 210.4,55.1 209.3,58.3 208.2,55.1     207.2,55.1 206.1,58.2 205,55.1 203.5,55.1   ">
                              </polygon>
                              <path class="st7"
                                d="M233.4,60.8h1.5l0.5-1.1h2.5l0.4,1.1h1.5l-2.2-5.7h-1.6L233.4,60.8z M235.8,58.8l0.9-2.2l0.8,2.2H235.8z">
                              </path>
                              <path class="st7"
                                d="M262.9,60.8h1.4v-2.3c0.1,0,0.1,0,0.2,0c0.6,0,0.8,0.2,1,0.7l0.7,1.6h1.6l-0.9-2c-0.2-0.4-0.4-0.6-0.7-0.7    c0.7-0.3,1-0.8,1-1.4c0-1.1-0.7-1.7-2.3-1.7h-2.1V60.8z M265,57.5h-0.7v-1.3h0.7c0.5,0,0.8,0.2,0.8,0.7    C265.8,57.3,265.5,57.5,265,57.5">
                              </path>
                              <polygon class="st7"
                                points="291.5,60.8 295.4,60.8 295.4,59.8 292.9,59.8 292.9,58.4 295.2,58.4 295.2,57.4 292.9,57.4     292.9,56.2 295.3,56.2 295.3,55.1 291.5,55.1   ">
                              </polygon>
                              <path class="st5"
                                d="M160.4,25c2-0.8,3.7-1,4.8-1c5.6,0,9.3,3.9,9.3,10c0,6.4-4,10.1-10.9,10.1c-2.4,0-4.8-0.5-7.3-1.3l-0.1-28.1    h4.2V25z M164,40.3c3.9,0,6.1-2.2,6.1-6.2c0-3.9-2.2-6.3-5.7-6.3c-1.5,0-3,0.5-4,1v10.7C161.6,40,162.8,40.3,164,40.3">
                              </path>
                              <rect x="191.8" y="10.7" class="st5" width="4.1" height="36.9"></rect>
                              <path class="st5"
                                d="M218.7,31.8h9.5c-0.1-2.5-1.5-3.8-3.9-4C221.9,27.7,219.5,29.2,218.7,31.8 M223.4,44.2    c-6.4-0.6-9.4-5.1-9.3-10.4c0.2-5.7,3.9-9.8,9.5-9.8c5.9,0,9.3,4.4,9.1,10.8h-14.3c0.3,3.6,2.5,5.3,5.4,5.5    c2.4,0.2,5.9-0.4,7.8-1.5v3.9C229.2,43.9,226.6,44.5,223.4,44.2">
                              </path>
                              <path class="st5"
                                d="M293.9,40.9c2.6,0,4.4-1.3,4.4-4.3V24.4h4.2v12.7c0,4.3-3.3,6.9-8.6,6.9c-5.2,0-8.5-2.6-8.5-6.9V24.4h4.2    v12.2C289.5,39.6,291.3,40.9,293.9,40.9">
                              </path>
                              <path class="st5"
                                d="M128.7,44.1c-7,0-10.9-3.7-10.9-10.1c0-6.1,3.8-10,9.3-10c1.9,0,3.4,0.4,4.8,1.3v-1.4h4.2L136,42.8    C134.3,43.5,131.4,44.1,128.7,44.1 M128.3,40.3c0.9,0,2.1-0.1,3.6-0.5l0.1-10.7c-1.3-0.9-2.6-1.3-4-1.3c-3.5,0-5.7,2.3-5.7,6.3    C122.2,38,124.4,40.3,128.3,40.3">
                              </path>
                              <path class="st5"
                                d="M260.4,44.1c-7,0-10.9-3.7-10.9-10.1c0-6.1,3.8-10,9.3-10c1.9,0,3.4,0.4,4.8,1.3v-1.4h4.2l-0.1,18.9    C265.9,43.5,263.1,44.1,260.4,44.1 M260,40.3c0.8,0,2.1-0.1,3.6-0.5l0.1-10.7c-1.3-0.9-2.6-1.3-4-1.3c-3.5,0-5.7,2.3-5.7,6.3    C253.9,38,256.1,40.3,260,40.3">
                              </path>
                            </g>
                            <g>
                              <polygon class="st8"
                                points="86.8,16 90.9,16 90.9,27.7 102.1,27.7 102.1,31.5 90.9,31.5 90.9,44.2 86.8,44.2 86.8,31.5     75.7,31.5 75.7,27.7 86.8,27.7   ">
                              </polygon>
                              <path class="st8"
                                d="M309.3,24.2c1.4,0,2.4,1.1,2.4,2.5c0,1.4-1.1,2.5-2.4,2.5c-1.4,0-2.5-1.1-2.5-2.5    C306.8,25.3,307.9,24.2,309.3,24.2L309.3,24.2z M309.3,24.6c-1.1,0-2,0.9-2,2.1c0,1.2,0.9,2.1,2,2.1c1.1,0,2-0.9,2-2.1    C311.3,25.5,310.4,24.6,309.3,24.6L309.3,24.6z M308.8,28.1h-0.4v-2.8c0.2,0,0.5-0.1,0.8-0.1c0.4,0,0.7,0.1,0.9,0.2    c0.2,0.1,0.3,0.3,0.3,0.6c0,0.4-0.2,0.6-0.5,0.7v0c0.2,0,0.4,0.3,0.5,0.7c0.1,0.4,0.1,0.6,0.2,0.7h-0.5c-0.1-0.1-0.1-0.3-0.2-0.7    c-0.1-0.4-0.2-0.5-0.6-0.5h-0.3V28.1z M308.8,26.6h0.3c0.4,0,0.7-0.1,0.7-0.5c0-0.2-0.2-0.5-0.7-0.5c-0.1,0-0.2,0-0.3,0V26.6z">
                              </path>
                            </g>
                          </g>
                        </svg>