<?xml version="1.0" encoding="utf-8"?>
<!-- Generator: Adobe Illustrator 21.1.0, SVG Export Plug-In . SVG Version: 6.00 Build 0)  -->
<svg version="1.1" id="Layer_1" xmlns="http://www.w3.org/2000/svg" xmlns:xlink="http://www.w3.org/1999/xlink" x="0px" y="0px"
	 viewBox="0 0 883.4 340.1" style="enable-background:new 0 0 883.4 340.1;" xml:space="preserve">
<style type="text/css">
	.st0{fill:#FFFFFF;}
</style>
<g>
	<path class="st0" d="M792.6,104.3c0.1,5.4-4.9,10.2-10.7,10.4c-5.9,0.2-11.3-4.5-11.5-10.2c-0.2-5.4,4.7-10.1,10.7-10.3
		C787.3,94.1,792.5,98.7,792.6,104.3"/>
	<path class="st0" d="M455.9,220.5c4.5-15.2,9-30.5,13.5-45.7c7.8-26.6,15.9-53.2,23.4-79.9c2.6-9.4,9.2-9.3,15.5-5
		c2.8,1.9,3.7,4.4,2.6,7.8c-14.6,47.5-29.1,95.1-43.7,142.6c-1.8,5.7-5.7,8.4-12,8.5c-6.3,0.1-10-2.5-11.8-8.6
		c-14.6-47.3-29.2-94.7-43.8-142c-1.7-5.4,0.1-8.1,6.3-10.1c5.9-1.9,9.5-0.5,11.1,4.8c6.2,20.7,12.3,41.4,18.5,62.2
		c6.5,21.8,13,43.6,19.5,65.4C455.2,220.5,455.6,220.5,455.9,220.5"/>
	<path class="st0" d="M520,180.3c0-9.3,0-18.7,0-28c0-5.6,3.5-8.9,9.1-8.8c5.3,0.1,8.8,3.4,8.8,8.7c0.1,18.2-0.1,36.3,0.1,54.5
		c0.1,12.2,7.8,22.1,19,25.3c15.5,4.4,31.3-8.4,31.5-25.7c0.2-17.8,0-35.6,0-53.5c0-6.1,3-9.3,9-9.3c5.1,0,9.3,2.8,9.2,9.2
		c-0.4,17.8,0,35.6-0.2,53.5c-0.2,22-17.2,40.3-39.3,42.6c-21,2.2-41.6-12.7-46.3-33.7c-0.7-3.2-0.8-6.6-0.9-9.9
		C519.9,196.9,520,188.6,520,180.3"/>
	<path class="st0" d="M850.8,142.1c7.4,0.3,16.3,1.4,24.4,5.9c5.4,3,6.1,6.1,3.2,11c-2.4,4.1-5.6,4.7-9.7,2.6
		c-7.1-3.6-14.6-5.5-22.6-4.7c-6.4,0.6-12,2.9-15.1,9c-3.5,6.8-1.3,13.3,5.9,17.1c7.6,4,16.1,5.3,24.1,8.1
		c14.5,5,22.3,14.8,22.4,28.4c0.1,12-6.5,22.3-17.8,26.3c-15.5,5.5-30.8,4.3-45.6-2.8c-3.2-1.5-6-3.7-7.9-6.7
		c-2.5-3.9-1.1-7.4,1.7-10.4c2.8-3,5.5-1.1,7.9,0.7c10.4,8,22.1,9.6,34.5,6.6c5.4-1.3,9.5-4.3,10.5-10.1c0.9-5.8-1-10.9-5.8-14.5
		c-4.2-3.1-9.2-4.7-14.1-6.3c-5.5-1.8-11.2-3.3-16.6-5.5c-9.8-4-16.3-10.9-16.8-22.1c-0.5-11.9,3.9-21.5,14.5-27.6
		C834.6,143.3,841.8,142.3,850.8,142.1"/>
	<path class="st0" d="M772.7,208.3c0-18.6,0-37.3,0-55.9c0-6,2.9-8.8,8.9-8.8c5.9,0,9.2,2.9,9.2,8.6c-0.1,36.6-0.1,73.2-0.3,109.9
		c0,7-1.8,13.8-4.8,20.2c-4.4,9.3-12.2,13.8-21.9,15.5c-4.1,0.7-8.1,0-10.8-3.5c-3.5-4.5-0.7-11.2,5.1-12.3
		c10.8-2,14.1-5.4,14.3-17.2c0.3-18.8,0.1-37.6,0.1-56.4H772.7z"/>
	<path class="st0" d="M751.6,236.9c0.1,6.4-4.8,11.5-11.3,11.5c-6.1,0-11.1-4.9-11.2-11c-0.2-6.3,5-11.5,11.3-11.5
		C746.6,225.9,751.5,230.8,751.6,236.9"/>
	<path class="st0" d="M697.2,200.5c11.1-0.3,15.9-5.4,16.2-16.5c0.5-22-16-39.8-38.7-41.6c-22.5-1.8-43.7,14.4-46.4,35.8
		c-1.3,10.6-0.9,21.3-0.2,31.9c0.9,13.6,7.2,24.2,19,31c16.8,9.8,34.4,10.2,52.3,3.3c3.1-1.2,5.9-3,8.4-5.3
		c3.5-3.1,4.4-6.5,1.5-10.5c-2.8-4-6.2-3.9-10-1.5c-5.4,3.3-11.1,5.9-17.6,6.6c-21.5,2.5-36.3-9.9-35.7-29.9
		c0.1-2.9,0.9-3.7,3.7-3.6c8,0.2,16,0.1,24,0.1v0.3C681.5,200.6,689.4,200.8,697.2,200.5 M668.9,188.2c0,0.1,0,0.2,0,0.3
		c-6.5,0-13,0-19.5,0c-1.8,0-3.6,0.4-3.7-2.6c-0.6-10.9,2.3-20.1,12.2-26.1c8.8-5.3,20.6-4.7,28.7,1.7c6.6,5.1,9.8,12,9.8,20.3
		c0,4.1-1.9,6.3-6,6.3C683.2,188.3,676,188.2,668.9,188.2"/>
	<path class="st0" d="M313.4,0.2h79C327,113.5,261.8,226.4,196.2,340.1C130.6,226.4,65.5,113.7,0,0.2h78.5c3.7,2.2,5,6.1,7,9.5
		c35.5,61.9,71.5,123.6,107,185.6c0.2,0.4,0.5,0.9,0.8,1.3c2.9,4.6,3.2,4.7,5.9-0.2c30.5-53.1,61.3-106.1,91.8-159.2
		c6.1-10.7,12.2-21.4,18.5-32C310.6,3.5,311.6,1.5,313.4,0.2"/>
	<path class="st0" d="M224.1,0c-3.5,6-6.9,12-10.4,18c-5.7,9.9-11.4,19.8-17.4,30.1c-1.2-2.1-2.2-3.6-3-5.1
		c-8.3-14.4-16.6-28.7-24.9-43.1H95.7c11.6,20,23.1,40,34.7,60.1c21.2,36.7,42.4,73.4,63.5,110.2c1.7,2.9,2.6,3.3,4.5,0.1
		c9.5-16.6,19.1-33.1,28.7-49.7c22.2-38.4,44.4-76.9,66.5-115.4c1-1.8,2-3.5,3.1-5.3H224.1z"/>
</g>
</svg>
